<svg xmlns="http://www.w3.org/2000/svg" viewBox="1084.354512635379 1536.6484000000003 3720.42238267148 2205.47" id="svg1" version="1.1" style="max-height: 500px" width="3720.42238267148" height="2205.47">
  <title id="title7">Logo</title>
  <defs id="defs1"/>
  <g id="g1">
    <g transform="translate(-46.446313,19.905563)" id="g2">
      <path id="path7" d="m 4407.75,3641.3377 c 0.6875,-0.2774 1.8125,-0.2774 2.5,0 0.6875,0.2774 0.125,0.5044 -1.25,0.5044 -1.375,0 -1.9375,-0.227 -1.25,-0.5044 z m 64.0179,-0.062 c 1.7974,-0.2226 4.4974,-0.218 6,0.01 1.5027,0.2281 0.032,0.4102 -3.2679,0.4046 -3.3,-0.01 -4.5294,-0.1923 -2.7321,-0.4148 z m 121.4958,-0.9929 c 1.5201,-0.2298 3.7701,-0.2237 5,0.014 1.23,0.2373 -0.014,0.4254 -2.7637,0.4179 -2.75,-0.01 -3.7563,-0.2017 -2.2363,-0.4316 z m 61.9863,-1.0109 c 2.0625,-0.2157 5.4375,-0.2157 7.5,0 2.0625,0.2158 0.375,0.3923 -3.75,0.3923 -4.125,0 -5.8125,-0.1765 -3.75,-0.3923 z m 106.019,-0.9645 c 0.973,-0.2535 2.323,-0.2369 3,0.037 0.6771,0.2739 -0.119,0.4813 -1.769,0.461 -1.65,-0.02 -2.2039,-0.2445 -1.231,-0.4981 z m -2553.0053,-379.025 c 1.5201,-0.2298 3.7701,-0.2237 5,0.014 1.23,0.2373 -0.014,0.4254 -2.7637,0.4179 -2.75,-0.01 -3.7563,-0.2017 -2.2363,-0.4316 z M 1400.75,3229.3377 c 0.6875,-0.2774 1.8125,-0.2774 2.5,0 0.6875,0.2774 0.125,0.5044 -1.25,0.5044 -1.375,0 -1.9375,-0.227 -1.25,-0.5044 z m 698.1743,-18.0877 -2.4243,-2.75 2.75,2.4243 c 2.5703,2.2659 3.2086,3.0757 2.4243,3.0757 -0.1791,0 -1.4166,-1.2375 -2.75,-2.75 z M 2356,3193.6224 c 0,-0.2076 0.7875,-0.9951 1.75,-1.75 1.5861,-1.2438 1.6214,-1.2085 0.3776,0.3776 -1.3064,1.6657 -2.1276,2.1955 -2.1276,1.3724 z m -1118.5629,-21.8724 -2.9371,-3.25 3.25,2.9371 c 3.0295,2.7378 3.7097,3.5629 2.9371,3.5629 -0.1721,0 -1.6346,-1.4625 -3.25,-3.25 z M 2385,3164.6224 c 0,-0.2076 0.7875,-0.9951 1.75,-1.75 1.5861,-1.2438 1.6214,-1.2085 0.3776,0.3776 -1.3064,1.6657 -2.1276,2.1955 -2.1276,1.3724 z m 1521.9243,-62.3724 -2.4243,-2.75 2.75,2.4243 c 2.5703,2.2659 3.2086,3.0757 2.4243,3.0757 -0.1791,0 -1.4166,-1.2375 -2.75,-2.75 z M 2050.1579,3073 c 0,-1.375 0.227,-1.9375 0.5044,-1.25 0.2774,0.6875 0.2774,1.8125 0,2.5 -0.2774,0.6875 -0.5044,0.125 -0.5044,-1.25 z m -856,-3 c 0,-1.375 0.227,-1.9375 0.5044,-1.25 0.2774,0.6875 0.2774,1.8125 0,2.5 -0.2774,0.6875 -0.5044,0.125 -0.5044,-1.25 z m 1366.921,-60.5833 c 0.048,-1.165 0.285,-1.4019 0.6042,-0.6042 0.2889,0.7219 0.2534,1.5844 -0.079,1.9167 -0.3323,0.3323 -0.5687,-0.2584 -0.5253,-1.3125 z M 2050.1949,2983.5 c 0.02,-1.65 0.2445,-2.2039 0.4981,-1.231 0.2535,0.973 0.2369,2.323 -0.037,3 -0.2739,0.6771 -0.4813,-0.119 -0.461,-1.769 z m 0.884,-24.0833 c 0.048,-1.165 0.285,-1.4019 0.6042,-0.6042 0.2889,0.7219 0.2534,1.5844 -0.079,1.9167 -0.3323,0.3323 -0.5687,-0.2584 -0.5253,-1.3125 z m 1,-19 c 0.048,-1.165 0.285,-1.4019 0.6042,-0.6042 0.2889,0.7219 0.2534,1.5844 -0.079,1.9167 -0.3323,0.3323 -0.5687,-0.2584 -0.5253,-1.3125 z m 1,-19 c 0.048,-1.165 0.285,-1.4019 0.6042,-0.6042 0.2889,0.7219 0.2534,1.5844 -0.079,1.9167 -0.3323,0.3323 -0.5687,-0.2584 -0.5253,-1.3125 z M 4377.5,2906 c 0.9955,-1.1 2.035,-2 2.31,-2 0.275,0 -0.3145,0.9 -1.31,2 -0.9955,1.1 -2.035,2 -2.31,2 -0.275,0 0.3145,-0.9 1.31,-2 z m -2323.4211,-3.5833 c 0.048,-1.165 0.285,-1.4019 0.6042,-0.6042 0.2889,0.7219 0.2534,1.5844 -0.079,1.9167 -0.3323,0.3323 -0.5687,-0.2584 -0.5253,-1.3125 z m 1,-19 c 0.048,-1.165 0.285,-1.4019 0.6042,-0.6042 0.2889,0.7219 0.2534,1.5844 -0.079,1.9167 -0.3323,0.3323 -0.5687,-0.2584 -0.5253,-1.3125 z m 1,-19 c 0.048,-1.165 0.285,-1.4019 0.6042,-0.6042 0.2889,0.7219 0.2534,1.5844 -0.079,1.9167 -0.3323,0.3323 -0.5687,-0.2584 -0.5253,-1.3125 z m 1,-19 c 0.048,-1.165 0.285,-1.4019 0.6042,-0.6042 0.2889,0.7219 0.2534,1.5844 -0.079,1.9167 -0.3323,0.3323 -0.5687,-0.2584 -0.5253,-1.3125 z m 1,-19 c 0.048,-1.165 0.285,-1.4019 0.6042,-0.6042 0.2889,0.7219 0.2534,1.5844 -0.079,1.9167 -0.3323,0.3323 -0.5687,-0.2584 -0.5253,-1.3125 z M 4487,2817.6224 c 0,-0.2076 0.7875,-0.9951 1.75,-1.75 1.5861,-1.2438 1.6214,-1.2085 0.3776,0.3776 -1.3064,1.6657 -2.1276,2.1955 -2.1276,1.3724 z m -2427.9211,-10.2057 c 0.048,-1.165 0.285,-1.4019 0.6042,-0.6042 0.2889,0.7219 0.2534,1.5844 -0.079,1.9167 -0.3323,0.3323 -0.5687,-0.2584 -0.5253,-1.3125 z m 1.079,-19.4167 c 0,-1.375 0.227,-1.9375 0.5044,-1.25 0.2774,0.6875 0.2774,1.8125 0,2.5 -0.2774,0.6875 -0.5044,0.125 -0.5044,-1.25 z m 272.1118,-9.0693 c -0.173,-2.2965 0.2984,-2.4986 1.0796,-0.4627 0.3099,0.8074 0.2264,1.6762 -0.1854,1.9307 -0.4118,0.2545 -0.8142,-0.4061 -0.8942,-1.468 z M 2061.1579,2769 c 0,-1.375 0.227,-1.9375 0.5044,-1.25 0.2774,0.6875 0.2774,1.8125 0,2.5 -0.2774,0.6875 -0.5044,0.125 -0.5044,-1.25 z m 271.921,-8.5833 c 0.048,-1.165 0.285,-1.4019 0.6042,-0.6042 0.2889,0.7219 0.2534,1.5844 -0.079,1.9167 -0.3323,0.3323 -0.5687,-0.2584 -0.5253,-1.3125 z M 2706,2752.6224 c 0,-0.2076 0.7875,-0.9951 1.75,-1.75 1.5861,-1.2438 1.6214,-1.2085 0.3776,0.3776 -1.3064,1.6657 -2.1276,2.1955 -2.1276,1.3724 z M 2062.1579,2750 c 0,-1.375 0.227,-1.9375 0.5044,-1.25 0.2774,0.6875 0.2774,1.8125 0,2.5 -0.2774,0.6875 -0.5044,0.125 -0.5044,-1.25 z m 272.0741,-15 c 0,-1.925 0.2058,-2.7125 0.4573,-1.75 0.2516,0.9625 0.2516,2.5375 0,3.5 -0.2515,0.9625 -0.4573,0.175 -0.4573,-1.75 z m -271.1531,-4.5833 c 0.048,-1.165 0.285,-1.4019 0.6042,-0.6042 0.2889,0.7219 0.2534,1.5844 -0.079,1.9167 -0.3323,0.3323 -0.5687,-0.2584 -0.5253,-1.3125 z m 672.8793,-8.6667 c 4.144,-4.4152 5.0418,-5.2091 5.0418,-4.4582 0,0.1605 -2.1375,2.298 -4.75,4.75 l -4.75,4.4582 z M 2064.1579,2711 c 0,-1.375 0.227,-1.9375 0.5044,-1.25 0.2774,0.6875 0.2774,1.8125 0,2.5 -0.2774,0.6875 -0.5044,0.125 -0.5044,-1.25 z M 2755,2702.5 c 1.8658,-1.925 3.6173,-3.5 3.8923,-3.5 0.275,0 -1.0265,1.575 -2.8923,3.5 -1.8658,1.925 -3.6173,3.5 -3.8923,3.5 -0.275,0 1.0265,-1.575 2.8923,-3.5 z M 2335.3605,2675 c 0,-5.225 0.1685,-7.3625 0.3745,-4.75 0.206,2.6125 0.206,6.8875 0,9.5 -0.206,2.6125 -0.3745,0.475 -0.3745,-4.75 z m 0,-30 c 0,-5.225 0.1685,-7.3625 0.3745,-4.75 0.206,2.6125 0.206,6.8875 0,9.5 -0.206,2.6125 -0.3745,0.475 -0.3745,-4.75 z m 1474.9085,-5.693 c 0.973,-0.2535 2.323,-0.2369 3,0.037 0.6771,0.2739 -0.119,0.4813 -1.769,0.461 -1.65,-0.02 -2.2039,-0.2445 -1.231,-0.4981 z m 24.5435,-0.9901 c 0.7219,-0.2889 1.5844,-0.2534 1.9167,0.079 0.3323,0.3323 -0.2584,0.5687 -1.3125,0.5253 -1.165,-0.048 -1.4019,-0.285 -0.6042,-0.6042 z m 29,-2 c 0.7219,-0.2889 1.5844,-0.2534 1.9167,0.079 0.3323,0.3323 -0.2584,0.5687 -1.3125,0.5253 -1.165,-0.048 -1.4019,-0.285 -0.6042,-0.6042 z M 2064.1949,2618.5 c 0.02,-1.65 0.2445,-2.2039 0.4981,-1.231 0.2535,0.973 0.2369,2.323 -0.037,3 -0.2739,0.6771 -0.4813,-0.119 -0.461,-1.769 z m 269.963,-15.5 c 0,-1.375 0.227,-1.9375 0.5044,-1.25 0.2774,0.6875 0.2774,1.8125 0,2.5 -0.2774,0.6875 -0.5044,0.125 -0.5044,-1.25 z m -271.079,-4.5833 c 0.048,-1.165 0.285,-1.4019 0.6042,-0.6042 0.2889,0.7219 0.2534,1.5844 -0.079,1.9167 -0.3323,0.3323 -0.5687,-0.2584 -0.5253,-1.3125 z m -1,-15 c 0.048,-1.165 0.285,-1.4019 0.6042,-0.6042 0.2889,0.7219 0.2534,1.5844 -0.079,1.9167 -0.3323,0.3323 -0.5687,-0.2584 -0.5253,-1.3125 z M 2333.1579,2583 c 0,-1.375 0.227,-1.9375 0.5044,-1.25 0.2774,0.6875 0.2774,1.8125 0,2.5 -0.2774,0.6875 -0.5044,0.125 -0.5044,-1.25 z M 2516,2557.6224 c 0,-0.2076 0.7875,-0.9951 1.75,-1.75 1.5861,-1.2438 1.6214,-1.2085 0.3776,0.3776 -1.3064,1.6657 -2.1276,2.1955 -2.1276,1.3724 z m -184.9211,-3.2057 c 0.048,-1.165 0.285,-1.4019 0.6042,-0.6042 0.2889,0.7219 0.2534,1.5844 -0.079,1.9167 -0.3323,0.3323 -0.5687,-0.2584 -0.5253,-1.3125 z m 681.7336,-2.0998 c 0.7219,-0.2889 1.5844,-0.2534 1.9167,0.079 0.3323,0.3323 -0.2584,0.5687 -1.3125,0.5253 -1.165,-0.048 -1.4019,-0.285 -0.6042,-0.6042 z M 1936,2529.5 c 1.2917,-1.375 2.5736,-2.5 2.8486,-2.5 0.275,0 -0.5569,1.125 -1.8486,2.5 -1.2917,1.375 -2.5736,2.5 -2.8486,2.5 -0.275,0 0.5569,-1.125 1.8486,-2.5 z m 15,-14.8776 c 0,-0.2076 0.7875,-0.9951 1.75,-1.75 1.5861,-1.2438 1.6214,-1.2085 0.3776,0.3776 -1.3064,1.6657 -2.1276,2.1955 -2.1276,1.3724 z m 613,-5.1224 c 1.2917,-1.375 2.5736,-2.5 2.8486,-2.5 0.275,0 -0.5569,1.125 -1.8486,2.5 -1.2917,1.375 -2.5736,2.5 -2.8486,2.5 -0.275,0 0.5569,-1.125 1.8486,-2.5 z m -832,-157.8776 c 0,-0.2076 0.7875,-0.9951 1.75,-1.75 1.5861,-1.2438 1.6214,-1.2085 0.3776,0.3776 -1.3064,1.6657 -2.1276,2.1955 -2.1276,1.3724 z m 14,-15 c 0,-0.2076 0.7875,-0.9951 1.75,-1.75 1.5861,-1.2438 1.6214,-1.2085 0.3776,0.3776 -1.3064,1.6657 -2.1276,2.1955 -2.1276,1.3724 z m 9,-9 c 0,-0.2076 0.7875,-0.9951 1.75,-1.75 1.5861,-1.2438 1.6214,-1.2085 0.3776,0.3776 -1.3064,1.6657 -2.1276,2.1955 -2.1276,1.3724 z m 2946.0789,-1.2057 c 0.048,-1.165 0.285,-1.4019 0.6042,-0.6042 0.2889,0.7219 0.2534,1.5844 -0.079,1.9167 -0.3323,0.3323 -0.5687,-0.2584 -0.5253,-1.3125 z m 1.079,-21.4167 c 0,-1.375 0.227,-1.9375 0.5044,-1.25 0.2774,0.6875 0.2774,1.8125 0,2.5 -0.2774,0.6875 -0.5044,0.125 -0.5044,-1.25 z m -421.8298,-16.5 c 0,-3.85 0.1852,-5.3025 0.4017,-3.2277 0.2165,2.0748 0.2128,5.2248 -0.01,7 -0.2209,1.7752 -0.398,0.078 -0.3936,-3.7723 z M 2995.75,2280.2943 c 1.2375,-0.2384 3.2625,-0.2384 4.5,0 1.2375,0.2383 0.225,0.4333 -2.25,0.4333 -2.475,0 -3.4875,-0.195 -2.25,-0.4333 z m 29,0.043 c 0.6875,-0.2774 1.8125,-0.2774 2.5,0 0.6875,0.2774 0.125,0.5044 -1.25,0.5044 -1.375,0 -1.9375,-0.227 -1.25,-0.5044 z M 4702.232,2228 c 0,-1.925 0.2058,-2.7125 0.4573,-1.75 0.2516,0.9625 0.2516,2.5375 0,3.5 -0.2515,0.9625 -0.4573,0.175 -0.4573,-1.75 z m -2688.4195,-33.6831 c 0.7219,-0.2889 1.5844,-0.2534 1.9167,0.079 0.3323,0.3323 -0.2584,0.5687 -1.3125,0.5253 -1.165,-0.048 -1.4019,-0.285 -0.6042,-0.6042 z m 42,0 c 0.7219,-0.2889 1.5844,-0.2534 1.9167,0.079 0.3323,0.3323 -0.2584,0.5687 -1.3125,0.5253 -1.165,-0.048 -1.4019,-0.285 -0.6042,-0.6042 z m 2142.1533,-112.0669 -5.4658,-5.75 5.75,5.4658 c 5.3419,5.078 6.2081,6.0342 5.4658,6.0342 -0.1562,0 -2.7437,-2.5875 -5.75,-5.75 z m -793.1533,-37.9331 c 0.7219,-0.2889 1.5844,-0.2534 1.9167,0.079 0.3323,0.3323 -0.2584,0.5687 -1.3125,0.5253 -1.165,-0.048 -1.4019,-0.285 -0.6042,-0.6042 z M 3080.4132,2023.5 c 0,-9.9 0.1507,-13.8147 0.3325,-8.6994 0.1819,5.1153 0.181,13.2153 0,18 -0.1829,4.7847 -0.3317,0.5994 -0.3306,-9.3006 z m 80.3993,9.8169 c 0.7219,-0.2889 1.5844,-0.2534 1.9167,0.079 0.3323,0.3323 -0.2584,0.5687 -1.3125,0.5253 -1.165,-0.048 -1.4019,-0.285 -0.6042,-0.6042 z m 10.9492,-0.024 c 1.2439,-0.2392 3.0439,-0.2301 4,0.02 0.956,0.2503 -0.062,0.446 -2.2617,0.4349 -2.2,-0.011 -2.9823,-0.2159 -1.7383,-0.4551 z m 27.9883,-0.955 c 0.6875,-0.2774 1.8125,-0.2774 2.5,0 0.6875,0.2774 0.125,0.5044 -1.25,0.5044 -1.375,0 -1.9375,-0.227 -1.25,-0.5044 z m 70.0625,-7.0208 c 0.7219,-0.2889 1.5844,-0.2534 1.9167,0.079 0.3323,0.3323 -0.2584,0.5687 -1.3125,0.5253 -1.165,-0.048 -1.4019,-0.285 -0.6042,-0.6042 z M 3128.1949,1986.5 c 0.02,-1.65 0.2445,-2.2039 0.4981,-1.231 0.2535,0.973 0.2369,2.323 -0.037,3 -0.2739,0.6771 -0.4813,-0.119 -0.461,-1.769 z m 327.884,-10.0833 c 0.048,-1.165 0.285,-1.4019 0.6042,-0.6042 0.2889,0.7219 0.2534,1.5844 -0.079,1.9167 -0.3323,0.3323 -0.5687,-0.2584 -0.5253,-1.3125 z m 321.7336,-14.0998 c 0.7219,-0.2889 1.5844,-0.2534 1.9167,0.079 0.3323,0.3323 -0.2584,0.5687 -1.3125,0.5253 -1.165,-0.048 -1.4019,-0.285 -0.6042,-0.6042 z m 16.9375,-0.9792 c 0.6875,-0.2774 1.8125,-0.2774 2.5,0 0.6875,0.2774 0.125,0.5044 -1.25,0.5044 -1.375,0 -1.9375,-0.227 -1.25,-0.5044 z m 71.0625,-0.021 c 0.7219,-0.2889 1.5844,-0.2534 1.9167,0.079 0.3323,0.3323 -0.2584,0.5687 -1.3125,0.5253 -1.165,-0.048 -1.4019,-0.285 -0.6042,-0.6042 z M 3457.1579,1957 c 0,-1.375 0.227,-1.9375 0.5044,-1.25 0.2774,0.6875 0.2774,1.8125 0,2.5 -0.2774,0.6875 -0.5044,0.125 -0.5044,-1.25 z m 1.152,-34.5 c 0.01,-3.3 0.1923,-4.5294 0.4148,-2.7321 0.2226,1.7974 0.218,4.4974 -0.01,6 -0.2281,1.5027 -0.4102,0.032 -0.4046,-3.2679 z m 0.045,-58 c 0,-4.95 0.166,-7.1011 0.3757,-4.7802 0.2098,2.3209 0.2122,6.3709 0.01,9 -0.2067,2.6291 -0.3783,0.7302 -0.3813,-4.2198 z m -378.9551,-25 c 0,-8.25 0.1563,-11.4919 0.3442,-7.2043 0.1879,4.2876 0.1868,11.0376 0,15 -0.1893,3.9624 -0.3431,0.4543 -0.3417,-7.7957 z m 1469.0051,-27.75 -1.905,-2.25 2.25,1.905 c 1.2375,1.0477 2.25,2.0602 2.25,2.25 0,0.8002 -0.8048,0.2094 -2.595,-1.905 z m -10.4807,-10.5 -2.4243,-2.75 2.75,2.4243 c 2.5703,2.2659 3.2086,3.0757 2.4243,3.0757 -0.1791,0 -1.4166,-1.2375 -2.75,-2.75 z M 3197,1759.6224 c 0,-0.2076 0.7875,-0.9951 1.75,-1.75 1.5861,-1.2438 1.6214,-1.2085 0.3776,0.3776 -1.3064,1.6657 -2.1276,2.1955 -2.1276,1.3724 z m -117.9211,-30.2057 c 0.048,-1.165 0.285,-1.4019 0.6042,-0.6042 0.2889,0.7219 0.2534,1.5844 -0.079,1.9167 -0.3323,0.3323 -0.5687,-0.2584 -0.5253,-1.3125 z m 368.7935,-6.1667 c -1.2438,-1.5861 -1.2085,-1.6214 0.3776,-0.3776 1.6657,1.3064 2.1955,2.1276 1.3724,2.1276 -0.2076,0 -0.9951,-0.7875 -1.75,-1.75 z M 3335.25,1704.3107 c 0.9625,-0.2516 2.5375,-0.2516 3.5,0 0.9625,0.2515 0.175,0.4573 -1.75,0.4573 -1.925,0 -2.7125,-0.2058 -1.75,-0.4573 z m 13,0 c 0.9625,-0.2516 2.5375,-0.2516 3.5,0 0.9625,0.2515 0.175,0.4573 -1.75,0.4573 -1.925,0 -2.7125,-0.2058 -1.75,-0.4573 z m 708.5625,-54.9938 c 0.7219,-0.2889 1.5844,-0.2534 1.9167,0.079 0.3323,0.3323 -0.2584,0.5687 -1.3125,0.5253 -1.165,-0.048 -1.4019,-0.285 -0.6042,-0.6042 z m -13,-1 c 0.7219,-0.2889 1.5844,-0.2534 1.9167,0.079 0.3323,0.3323 -0.2584,0.5687 -1.3125,0.5253 -1.165,-0.048 -1.4019,-0.285 -0.6042,-0.6042 z m -40,-3 c 0.7219,-0.2889 1.5844,-0.2534 1.9167,0.079 0.3323,0.3323 -0.2584,0.5687 -1.3125,0.5253 -1.165,-0.048 -1.4019,-0.285 -0.6042,-0.6042 z m -14,-1 c 0.7219,-0.2889 1.5844,-0.2534 1.9167,0.079 0.3323,0.3323 -0.2584,0.5687 -1.3125,0.5253 -1.165,-0.048 -1.4019,-0.285 -0.6042,-0.6042 z m -44,-3 c 0.7219,-0.2889 1.5844,-0.2534 1.9167,0.079 0.3323,0.3323 -0.2584,0.5687 -1.3125,0.5253 -1.165,-0.048 -1.4019,-0.285 -0.6042,-0.6042 z m -17,-1 c 0.7219,-0.2889 1.5844,-0.2534 1.9167,0.079 0.3323,0.3323 -0.2584,0.5687 -1.3125,0.5253 -1.165,-0.048 -1.4019,-0.285 -0.6042,-0.6042 z m -17,-1 c 0.7219,-0.2889 1.5844,-0.2534 1.9167,0.079 0.3323,0.3323 -0.2584,0.5687 -1.3125,0.5253 -1.165,-0.048 -1.4019,-0.285 -0.6042,-0.6042 z m -17,-1 c 0.7219,-0.2889 1.5844,-0.2534 1.9167,0.079 0.3323,0.3323 -0.2584,0.5687 -1.3125,0.5253 -1.165,-0.048 -1.4019,-0.285 -0.6042,-0.6042 z m -18,-1 c 0.7219,-0.2889 1.5844,-0.2534 1.9167,0.079 0.3323,0.3323 -0.2584,0.5687 -1.3125,0.5253 -1.165,-0.048 -1.4019,-0.285 -0.6042,-0.6042 z m -18,-1 c 0.7219,-0.2889 1.5844,-0.2534 1.9167,0.079 0.3323,0.3323 -0.2584,0.5687 -1.3125,0.5253 -1.165,-0.048 -1.4019,-0.285 -0.6042,-0.6042 z m -19,-1 c 0.7219,-0.2889 1.5844,-0.2534 1.9167,0.079 0.3323,0.3323 -0.2584,0.5687 -1.3125,0.5253 -1.165,-0.048 -1.4019,-0.285 -0.6042,-0.6042 z m -19.0625,-0.9792 c 0.6875,-0.2774 1.8125,-0.2774 2.5,0 0.6875,0.2774 0.125,0.5044 -1.25,0.5044 -1.375,0 -1.9375,-0.227 -1.25,-0.5044 z m -21,-1 c 0.6875,-0.2774 1.8125,-0.2774 2.5,0 0.6875,0.2774 0.125,0.5044 -1.25,0.5044 -1.375,0 -1.9375,-0.227 -1.25,-0.5044 z m -20.9375,-1.0208 c 0.7219,-0.2889 1.5844,-0.2534 1.9167,0.079 0.3323,0.3323 -0.2584,0.5687 -1.3125,0.5253 -1.165,-0.048 -1.4019,-0.285 -0.6042,-0.6042 z M 3489.75,1620.3377 c 0.6875,-0.2774 1.8125,-0.2774 2.5,0 0.6875,0.2774 0.125,0.5044 -1.25,0.5044 -1.375,0 -1.9375,-0.227 -1.25,-0.5044 z m -22,-1 c 0.6875,-0.2774 1.8125,-0.2774 2.5,0 0.6875,0.2774 0.125,0.5044 -1.25,0.5044 -1.375,0 -1.9375,-0.227 -1.25,-0.5044 z m -21,-1 c 0.6875,-0.2774 1.8125,-0.2774 2.5,0 0.6875,0.2774 0.125,0.5044 -1.25,0.5044 -1.375,0 -1.9375,-0.227 -1.25,-0.5044 z m -21,-1 c 0.6875,-0.2774 1.8125,-0.2774 2.5,0 0.6875,0.2774 0.125,0.5044 -1.25,0.5044 -1.375,0 -1.9375,-0.227 -1.25,-0.5044 z m -21,-1 c 0.6875,-0.2774 1.8125,-0.2774 2.5,0 0.6875,0.2774 0.125,0.5044 -1.25,0.5044 -1.375,0 -1.9375,-0.227 -1.25,-0.5044 z m -21,-1 c 0.6875,-0.2774 1.8125,-0.2774 2.5,0 0.6875,0.2774 0.125,0.5044 -1.25,0.5044 -1.375,0 -1.9375,-0.227 -1.25,-0.5044 z m -153,-18 c 0.6875,-0.2774 1.8125,-0.2774 2.5,0 0.6875,0.2774 0.125,0.5044 -1.25,0.5044 -1.375,0 -1.9375,-0.227 -1.25,-0.5044 z" style="fill:#e9caad"/>
      <path id="path6" d="m 4412.7617,3641.2927 c 1.2439,-0.2392 3.0439,-0.2301 4,0.02 0.956,0.2503 -0.062,0.446 -2.2617,0.4349 -2.2,-0.011 -2.9823,-0.2159 -1.7383,-0.4551 z m 48.4883,-0.01 c 1.5125,-0.2291 3.9875,-0.2291 5.5,0 1.5125,0.2292 0.275,0.4166 -2.75,0.4166 -3.025,0 -4.2625,-0.1874 -2.75,-0.4166 z m -69.4375,-0.9668 c 0.7219,-0.2889 1.5844,-0.2534 1.9167,0.079 0.3323,0.3323 -0.2584,0.5687 -1.3125,0.5253 -1.165,-0.048 -1.4019,-0.285 -0.6042,-0.6042 z m 189.9375,-0.04 c 1.7875,-0.2218 4.7125,-0.2218 6.5,0 1.7875,0.2218 0.325,0.4033 -3.25,0.4033 -3.575,0 -5.0375,-0.1815 -3.25,-0.4033 z m 61,-1 c 1.7875,-0.2218 4.7125,-0.2218 6.5,0 1.7875,0.2218 0.325,0.4033 -3.25,0.4033 -3.575,0 -5.0375,-0.1815 -3.25,-0.4033 z m 95.5457,-1.0207 c 4.2876,-0.1879 11.0376,-0.1868 15,0 3.9624,0.1893 0.4543,0.3431 -7.7957,0.3417 -8.25,0 -11.4919,-0.1563 -7.2043,-0.3442 z M 1406.7679,3229.2753 c 1.7974,-0.2226 4.4974,-0.218 6,0.01 1.5027,0.2281 0.032,0.4102 -3.2679,0.4046 -3.3,-0.01 -4.5294,-0.1923 -2.7321,-0.4148 z m 697.1564,-13.0253 -2.4243,-2.75 2.75,2.4243 c 2.5703,2.2659 3.2086,3.0757 2.4243,3.0757 -0.1791,0 -1.4166,-1.2375 -2.75,-2.75 z M 2359,3190.6224 c 0,-0.2076 0.7875,-0.9951 1.75,-1.75 1.5861,-1.2438 1.6214,-1.2085 0.3776,0.3776 -1.3064,1.6657 -2.1276,2.1955 -2.1276,1.3724 z m 23,-23 c 0,-0.2076 0.7875,-0.9951 1.75,-1.75 1.5861,-1.2438 1.6214,-1.2085 0.3776,0.3776 -1.3064,1.6657 -2.1276,2.1955 -2.1276,1.3724 z M 3910.8724,3106.25 c -1.2438,-1.5861 -1.2085,-1.6214 0.3776,-0.3776 1.6657,1.3064 2.1955,2.1276 1.3724,2.1276 -0.2076,0 -0.9951,-0.7875 -1.75,-1.75 z m -1860.7935,-36.8333 c 0.048,-1.165 0.285,-1.4019 0.6042,-0.6042 0.2889,0.7219 0.2534,1.5844 -0.079,1.9167 -0.3323,0.3323 -0.5687,-0.2584 -0.5253,-1.3125 z M 2561.2724,3004 c 0,-2.475 0.195,-3.4875 0.4333,-2.25 0.2384,1.2375 0.2384,3.2625 0,4.5 -0.2383,1.2375 -0.4333,0.225 -0.4333,-2.25 z m -511.0404,-15 c 0,-1.925 0.2058,-2.7125 0.4573,-1.75 0.2516,0.9625 0.2516,2.5375 0,3.5 -0.2515,0.9625 -0.4573,0.175 -0.4573,-1.75 z m 0.8469,-26.5833 c 0.048,-1.165 0.285,-1.4019 0.6042,-0.6042 0.2889,0.7219 0.2534,1.5844 -0.079,1.9167 -0.3323,0.3323 -0.5687,-0.2584 -0.5253,-1.3125 z m 1,-19 c 0.048,-1.165 0.285,-1.4019 0.6042,-0.6042 0.2889,0.7219 0.2534,1.5844 -0.079,1.9167 -0.3323,0.3323 -0.5687,-0.2584 -0.5253,-1.3125 z m 1,-19 c 0.048,-1.165 0.285,-1.4019 0.6042,-0.6042 0.2889,0.7219 0.2534,1.5844 -0.079,1.9167 -0.3323,0.3323 -0.5687,-0.2584 -0.5253,-1.3125 z m 1,-19 c 0.048,-1.165 0.285,-1.4019 0.6042,-0.6042 0.2889,0.7219 0.2534,1.5844 -0.079,1.9167 -0.3323,0.3323 -0.5687,-0.2584 -0.5253,-1.3125 z m 1,-19 c 0.048,-1.165 0.285,-1.4019 0.6042,-0.6042 0.2889,0.7219 0.2534,1.5844 -0.079,1.9167 -0.3323,0.3323 -0.5687,-0.2584 -0.5253,-1.3125 z m 1,-19 c 0.048,-1.165 0.285,-1.4019 0.6042,-0.6042 0.2889,0.7219 0.2534,1.5844 -0.079,1.9167 -0.3323,0.3323 -0.5687,-0.2584 -0.5253,-1.3125 z m 1,-19 c 0.048,-1.165 0.285,-1.4019 0.6042,-0.6042 0.2889,0.7219 0.2534,1.5844 -0.079,1.9167 -0.3323,0.3323 -0.5687,-0.2584 -0.5253,-1.3125 z m 1,-19 c 0.048,-1.165 0.285,-1.4019 0.6042,-0.6042 0.2889,0.7219 0.2534,1.5844 -0.079,1.9167 -0.3323,0.3323 -0.5687,-0.2584 -0.5253,-1.3125 z m 1,-19 c 0.048,-1.165 0.285,-1.4019 0.6042,-0.6042 0.2889,0.7219 0.2534,1.5844 -0.079,1.9167 -0.3323,0.3323 -0.5687,-0.2584 -0.5253,-1.3125 z m 273,-35 c 0.048,-1.165 0.285,-1.4019 0.6042,-0.6042 0.2889,0.7219 0.2534,1.5844 -0.079,1.9167 -0.3323,0.3323 -0.5687,-0.2584 -0.5253,-1.3125 z m -271,-3 c 0.048,-1.165 0.285,-1.4019 0.6042,-0.6042 0.2889,0.7219 0.2534,1.5844 -0.079,1.9167 -0.3323,0.3323 -0.5687,-0.2584 -0.5253,-1.3125 z M 2333.1579,2757 c 0,-1.375 0.227,-1.9375 0.5044,-1.25 0.2774,0.6875 0.2774,1.8125 0,2.5 -0.2774,0.6875 -0.5044,0.125 -0.5044,-1.25 z m -270.079,-23.5833 c 0.048,-1.165 0.285,-1.4019 0.6042,-0.6042 0.2889,0.7219 0.2534,1.5844 -0.079,1.9167 -0.3323,0.3323 -0.5687,-0.2584 -0.5253,-1.3125 z M 2727.5,2730 c 2.1482,-2.2 4.1309,-4 4.4059,-4 0.275,0 -1.2577,1.8 -3.4059,4 -2.1482,2.2 -4.1309,4 -4.4059,4 -0.275,0 1.2577,-1.8 3.4059,-4 z m -393.268,-1 c 0,-1.925 0.2058,-2.7125 0.4573,-1.75 0.2516,0.9625 0.2516,2.5375 0,3.5 -0.2515,0.9625 -0.4573,0.175 -0.4573,-1.75 z m -270.1531,-14.5833 c 0.048,-1.165 0.285,-1.4019 0.6042,-0.6042 0.2889,0.7219 0.2534,1.5844 -0.079,1.9167 -0.3323,0.3323 -0.5687,-0.2584 -0.5253,-1.3125 z M 2759,2698.6224 c 0,-0.2076 0.7875,-0.9951 1.75,-1.75 1.5861,-1.2438 1.6214,-1.2085 0.3776,0.3776 -1.3064,1.6657 -2.1276,2.1955 -2.1276,1.3724 z M 2065.4218,2668 c 0,-11.275 0.1458,-15.8875 0.3241,-10.25 0.1782,5.6375 0.1782,14.8625 0,20.5 -0.1783,5.6375 -0.3241,1.025 -0.3241,-10.25 z m 269.8983,-8 c 0,-3.575 0.1815,-5.0375 0.4033,-3.25 0.2218,1.7875 0.2218,4.7125 0,6.5 -0.2218,1.7875 -0.4033,0.325 -0.4033,-3.25 z M 3814.75,2639.3377 c 0.6875,-0.2774 1.8125,-0.2774 2.5,0 0.6875,0.2774 0.125,0.5044 -1.25,0.5044 -1.375,0 -1.9375,-0.227 -1.25,-0.5044 z m 23.0625,-1.0208 c 0.7219,-0.2889 1.5844,-0.2534 1.9167,0.079 0.3323,0.3323 -0.2584,0.5687 -1.3125,0.5253 -1.165,-0.048 -1.4019,-0.285 -0.6042,-0.6042 z m -1773.7336,-23.9002 c 0.048,-1.165 0.285,-1.4019 0.6042,-0.6042 0.2889,0.7219 0.2534,1.5844 -0.079,1.9167 -0.3323,0.3323 -0.5687,-0.2584 -0.5253,-1.3125 z m 270.116,-6.9167 c 0.02,-1.65 0.2445,-2.2039 0.4981,-1.231 0.2535,0.973 0.2369,2.323 -0.037,3 -0.2739,0.6771 -0.4813,-0.119 -0.461,-1.769 z m -1.116,-21.0833 c 0.048,-1.165 0.285,-1.4019 0.6042,-0.6042 0.2889,0.7219 0.2534,1.5844 -0.079,1.9167 -0.3323,0.3323 -0.5687,-0.2584 -0.5253,-1.3125 z M 2500,2574.6224 c 0,-0.2076 0.7875,-0.9951 1.75,-1.75 1.5861,-1.2438 1.6214,-1.2085 0.3776,0.3776 -1.3064,1.6657 -2.1276,2.1955 -2.1276,1.3724 z M 1931.5,2534 c 0.9955,-1.1 2.035,-2 2.31,-2 0.275,0 -0.3145,0.9 -1.31,2 -0.9955,1.1 -2.035,2 -2.31,2 -0.275,0 0.3145,-0.9 1.31,-2 z m 627.5,-19.3776 c 0,-0.2076 0.7875,-0.9951 1.75,-1.75 1.5861,-1.2438 1.6214,-1.2085 0.3776,0.3776 -1.3064,1.6657 -2.1276,2.1955 -2.1276,1.3724 z m -810,-180.9353 c 0,-0.1721 1.4625,-1.6346 3.25,-3.25 l 3.25,-2.9371 -2.9371,3.25 c -2.7378,3.0295 -3.5629,3.7097 -3.5629,2.9371 z m 2952.0789,-10.2704 c 0.048,-1.165 0.285,-1.4019 0.6042,-0.6042 0.2889,0.7219 0.2534,1.5844 -0.079,1.9167 -0.3323,0.3323 -0.5687,-0.2584 -0.5253,-1.3125 z M 4702.232,2300 c 0,-1.925 0.2058,-2.7125 0.4573,-1.75 0.2516,0.9625 0.2516,2.5375 0,3.5 -0.2515,0.9625 -0.4573,0.175 -0.4573,-1.75 z m -422,-2 c 0,-1.925 0.2058,-2.7125 0.4573,-1.75 0.2516,0.9625 0.2516,2.5375 0,3.5 -0.2515,0.9625 -0.4573,0.175 -0.4573,-1.75 z m -0.074,-18 c 0,-1.375 0.227,-1.9375 0.5044,-1.25 0.2774,0.6875 0.2774,1.8125 0,2.5 -0.2774,0.6875 -0.5044,0.125 -0.5044,-1.25 z m -1276.8889,0.307 c 0.973,-0.2535 2.323,-0.2369 3,0.037 0.6771,0.2739 -0.119,0.4813 -1.769,0.461 -1.65,-0.02 -2.2039,-0.2445 -1.231,-0.4981 z m 15.4927,-0.014 c 1.2439,-0.2392 3.0439,-0.2301 4,0.02 0.956,0.2503 -0.062,0.446 -2.2617,0.4349 -2.2,-0.011 -2.9823,-0.2159 -1.7383,-0.4551 z M 4702.232,2234 c 0,-1.925 0.2058,-2.7125 0.4573,-1.75 0.2516,0.9625 0.2516,2.5375 0,3.5 -0.2515,0.9625 -0.4573,0.175 -0.4573,-1.75 z m -2684.963,-39.693 c 0.973,-0.2535 2.323,-0.2369 3,0.037 0.6771,0.2739 -0.119,0.4813 -1.769,0.461 -1.65,-0.02 -2.2039,-0.2445 -1.231,-0.4981 z M 3186.25,2120.25 c 58.1625,-0.1425 153.3375,-0.1425 211.5,0 58.1625,0.1426 10.575,0.2592 -105.75,0.2592 -116.325,0 -163.9125,-0.1166 -105.75,-0.2592 z m 1018.6224,-31 c -1.2438,-1.5861 -1.2085,-1.6214 0.3776,-0.3776 1.6657,1.3064 2.1955,2.1276 1.3724,2.1276 -0.2076,0 -0.9951,-0.7875 -1.75,-1.75 z m -808.0599,-44.9331 c 0.7219,-0.2889 1.5844,-0.2534 1.9167,0.079 0.3323,0.3323 -0.2584,0.5687 -1.3125,0.5253 -1.165,-0.048 -1.4019,-0.285 -0.6042,-0.6042 z M 3178.25,2033.3107 c 0.9625,-0.2516 2.5375,-0.2516 3.5,0 0.9625,0.2515 0.175,0.4573 -1.75,0.4573 -1.925,0 -2.7125,-0.2058 -1.75,-0.4573 z m 25.5625,-0.9938 c 0.7219,-0.2889 1.5844,-0.2534 1.9167,0.079 0.3323,0.3323 -0.2584,0.5687 -1.3125,0.5253 -1.165,-0.048 -1.4019,-0.285 -0.6042,-0.6042 z m 69,-7 c 0.7219,-0.2889 1.5844,-0.2534 1.9167,0.079 0.3323,0.3323 -0.2584,0.5687 -1.3125,0.5253 -1.165,-0.048 -1.4019,-0.285 -0.6042,-0.6042 z m 22.9375,0.021 c 0.6875,-0.2774 1.8125,-0.2774 2.5,0 0.6875,0.2774 0.125,0.5044 -1.25,0.5044 -1.375,0 -1.9375,-0.227 -1.25,-0.5044 z M 3080.3999,1991.5 c 0,-8.25 0.1563,-11.4919 0.3442,-7.2043 0.1879,4.2876 0.1868,11.0376 0,15 -0.1893,3.9624 -0.3431,0.4543 -0.3417,-7.7957 z m 376.679,-31.0833 c 0.048,-1.165 0.285,-1.4019 0.6042,-0.6042 0.2889,0.7219 0.2534,1.5844 -0.079,1.9167 -0.3323,0.3323 -0.5687,-0.2584 -0.5253,-1.3125 z m 334.7336,0.9002 c 0.7219,-0.2889 1.5844,-0.2534 1.9167,0.079 0.3323,0.3323 -0.2584,0.5687 -1.3125,0.5253 -1.165,-0.048 -1.4019,-0.285 -0.6042,-0.6042 z m 77,0 c 0.7219,-0.2889 1.5844,-0.2534 1.9167,0.079 0.3323,0.3323 -0.2584,0.5687 -1.3125,0.5253 -1.165,-0.048 -1.4019,-0.285 -0.6042,-0.6042 z m -42.5625,-1.0519 c 2.6125,-0.206 6.8875,-0.206 9.5,0 2.6125,0.206 0.475,0.3745 -4.75,0.3745 -5.225,0 -7.3625,-0.1685 -4.75,-0.3745 z M 3458.232,1931 c 0,-1.925 0.2058,-2.7125 0.4573,-1.75 0.2516,0.9625 0.2516,2.5375 0,3.5 -0.2515,0.9625 -0.4573,0.175 -0.4573,-1.75 z m 0.2324,-125.5 c -2e-4,-28.05 0.1279,-39.669 0.2847,-25.8199 0.1567,13.8491 0.1568,36.7991 3e-4,51 -0.1566,14.2009 -0.2848,2.8699 -0.285,-25.1801 z m -379.0826,8 c 0,-6.6 0.1638,-9.1699 0.3596,-5.7108 0.1958,3.459 0.1942,8.859 0,12 -0.1978,3.1409 -0.358,0.3108 -0.356,-6.2892 z m 1464.0553,-6.75 -2.9371,-3.25 3.25,2.9371 c 3.0295,2.7378 3.7097,3.5629 2.9371,3.5629 -0.1721,0 -1.6346,-1.4625 -3.25,-3.25 z m -1464.3582,-74.3333 c 0.048,-1.165 0.285,-1.4019 0.6042,-0.6042 0.2889,0.7219 0.2534,1.5844 -0.079,1.9167 -0.3323,0.3323 -0.5687,-0.2584 -0.5253,-1.3125 z m 252.7336,-28.0998 c 0.7219,-0.2889 1.5844,-0.2534 1.9167,0.079 0.3323,0.3323 -0.2584,0.5687 -1.3125,0.5253 -1.165,-0.048 -1.4019,-0.285 -0.6042,-0.6042 z m 22.4375,-0.01 c 0.9625,-0.2516 2.5375,-0.2516 3.5,0 0.9625,0.2515 0.175,0.4573 -1.75,0.4573 -1.925,0 -2.7125,-0.2058 -1.75,-0.4573 z m 726.5625,-52.9938 c 0.7219,-0.2889 1.5844,-0.2534 1.9167,0.079 0.3323,0.3323 -0.2584,0.5687 -1.3125,0.5253 -1.165,-0.048 -1.4019,-0.285 -0.6042,-0.6042 z m -155,-11 c 0.7219,-0.2889 1.5844,-0.2534 1.9167,0.079 0.3323,0.3323 -0.2584,0.5687 -1.3125,0.5253 -1.165,-0.048 -1.4019,-0.285 -0.6042,-0.6042 z m -17,-1 c 0.7219,-0.2889 1.5844,-0.2534 1.9167,0.079 0.3323,0.3323 -0.2584,0.5687 -1.3125,0.5253 -1.165,-0.048 -1.4019,-0.285 -0.6042,-0.6042 z m -17,-1 c 0.7219,-0.2889 1.5844,-0.2534 1.9167,0.079 0.3323,0.3323 -0.2584,0.5687 -1.3125,0.5253 -1.165,-0.048 -1.4019,-0.285 -0.6042,-0.6042 z m -18,-1 c 0.7219,-0.2889 1.5844,-0.2534 1.9167,0.079 0.3323,0.3323 -0.2584,0.5687 -1.3125,0.5253 -1.165,-0.048 -1.4019,-0.285 -0.6042,-0.6042 z m -18,-1 c 0.7219,-0.2889 1.5844,-0.2534 1.9167,0.079 0.3323,0.3323 -0.2584,0.5687 -1.3125,0.5253 -1.165,-0.048 -1.4019,-0.285 -0.6042,-0.6042 z m -38,-2 c 0.7219,-0.2889 1.5844,-0.2534 1.9167,0.079 0.3323,0.3323 -0.2584,0.5687 -1.3125,0.5253 -1.165,-0.048 -1.4019,-0.285 -0.6042,-0.6042 z m -21,-1 c 0.7219,-0.2889 1.5844,-0.2534 1.9167,0.079 0.3323,0.3323 -0.2584,0.5687 -1.3125,0.5253 -1.165,-0.048 -1.4019,-0.285 -0.6042,-0.6042 z m -21,-1 c 0.7219,-0.2889 1.5844,-0.2534 1.9167,0.079 0.3323,0.3323 -0.2584,0.5687 -1.3125,0.5253 -1.165,-0.048 -1.4019,-0.285 -0.6042,-0.6042 z M 3485.75,1620.3377 c 0.6875,-0.2774 1.8125,-0.2774 2.5,0 0.6875,0.2774 0.125,0.5044 -1.25,0.5044 -1.375,0 -1.9375,-0.227 -1.25,-0.5044 z m -20.9375,-1.0208 c 0.7219,-0.2889 1.5844,-0.2534 1.9167,0.079 0.3323,0.3323 -0.2584,0.5687 -1.3125,0.5253 -1.165,-0.048 -1.4019,-0.285 -0.6042,-0.6042 z m -21,-1 c 0.7219,-0.2889 1.5844,-0.2534 1.9167,0.079 0.3323,0.3323 -0.2584,0.5687 -1.3125,0.5253 -1.165,-0.048 -1.4019,-0.285 -0.6042,-0.6042 z m -21,-1 c 0.7219,-0.2889 1.5844,-0.2534 1.9167,0.079 0.3323,0.3323 -0.2584,0.5687 -1.3125,0.5253 -1.165,-0.048 -1.4019,-0.285 -0.6042,-0.6042 z m -21,-1 c 0.7219,-0.2889 1.5844,-0.2534 1.9167,0.079 0.3323,0.3323 -0.2584,0.5687 -1.3125,0.5253 -1.165,-0.048 -1.4019,-0.285 -0.6042,-0.6042 z m -155,-18 c 0.7219,-0.2889 1.5844,-0.2534 1.9167,0.079 0.3323,0.3323 -0.2584,0.5687 -1.3125,0.5253 -1.165,-0.048 -1.4019,-0.285 -0.6042,-0.6042 z m -21.5625,-1.0062 c 0.9625,-0.2516 2.5375,-0.2516 3.5,0 0.9625,0.2515 0.175,0.4573 -1.75,0.4573 -1.925,0 -2.7125,-0.2058 -1.75,-0.4573 z" style="fill:#e0b591"/>
      <path id="path5" d="m 4420.2637,3641.2824 c 1.5201,-0.2298 3.7701,-0.2237 5,0.014 1.23,0.2373 -0.014,0.4254 -2.7637,0.4179 -2.75,-0.01 -3.7563,-0.2017 -2.2363,-0.4316 z m 30.5042,-0.01 c 1.7974,-0.2226 4.4974,-0.218 6,0.01 1.5027,0.2281 0.032,0.4102 -3.2679,0.4046 -3.3,-0.01 -4.5294,-0.1923 -2.7321,-0.4148 z m 115.9821,-1.0075 c 2.3375,-0.2105 6.1625,-0.2105 8.5,0 2.3375,0.2105 0.425,0.3828 -4.25,0.3828 -4.675,0 -6.5875,-0.1723 -4.25,-0.3828 z m 62.9777,-0.9895 c 1.7752,-0.2209 4.9252,-0.2246 7,-0.01 2.0748,0.2165 0.6223,0.3972 -3.2277,0.4017 -3.85,0 -5.5475,-0.1727 -3.7723,-0.3936 z m 83.0223,-1.0187 c 3.4375,-0.1953 9.0625,-0.1953 12.5,0 3.4375,0.1953 0.625,0.355 -6.25,0.355 -6.875,0 -9.6875,-0.1597 -6.25,-0.355 z m -459.7789,-55.0096 -6.4711,-6.75 6.75,6.4711 c 3.7125,3.5591 6.75,6.5966 6.75,6.75 0,0.736 -1.0182,-0.2014 -7.0289,-6.4711 z M 1386.8125,3228.3169 c 0.7219,-0.2889 1.5844,-0.2534 1.9167,0.079 0.3323,0.3323 -0.2584,0.5687 -1.3125,0.5253 -1.165,-0.048 -1.4019,-0.285 -0.6042,-0.6042 z M 2364,3185.5 c 1.2917,-1.375 2.5736,-2.5 2.8486,-2.5 0.275,0 -0.5569,1.125 -1.8486,2.5 -1.2917,1.375 -2.5736,2.5 -2.8486,2.5 -0.275,0 0.5569,-1.125 1.8486,-2.5 z m 12,-11.8129 c 0,-0.1721 1.4625,-1.6346 3.25,-3.25 l 3.25,-2.9371 -2.9371,3.25 c -2.7378,3.0295 -3.5629,3.7097 -3.5629,2.9371 z M 3900.8724,3096.25 c -1.2438,-1.5861 -1.2085,-1.6214 0.3776,-0.3776 1.6657,1.3064 2.1955,2.1276 1.3724,2.1276 -0.2076,0 -0.9951,-0.7875 -1.75,-1.75 z m -1309.9262,-20 -3.4462,-3.75 3.75,3.4462 c 3.4904,3.2076 4.2098,4.0538 3.4462,4.0538 -0.1671,0 -1.8546,-1.6875 -3.75,-3.75 z m -540.7513,-10.75 c 0.02,-1.65 0.2445,-2.2039 0.4981,-1.231 0.2535,0.973 0.2369,2.323 -0.037,3 -0.2739,0.6771 -0.4813,-0.119 -0.461,-1.769 z m 0.057,-70 c 0.011,-2.2 0.2159,-2.9823 0.4551,-1.7383 0.2392,1.2439 0.2301,3.0439 -0.02,4 -0.2503,0.956 -0.446,-0.062 -0.4349,-2.2617 z m 0.8267,-30.0833 c 0.048,-1.165 0.285,-1.4019 0.6042,-0.6042 0.2889,0.7219 0.2534,1.5844 -0.079,1.9167 -0.3323,0.3323 -0.5687,-0.2584 -0.5253,-1.3125 z M 4354.2724,2954 c 0,-2.475 0.195,-3.4875 0.4333,-2.25 0.2384,1.2375 0.2384,3.2625 0,4.5 -0.2383,1.2375 -0.4333,0.225 -0.4333,-2.25 z m -2302.1935,-7.5833 c 0.048,-1.165 0.285,-1.4019 0.6042,-0.6042 0.2889,0.7219 0.2534,1.5844 -0.079,1.9167 -0.3323,0.3323 -0.5687,-0.2584 -0.5253,-1.3125 z m 1,-19 c 0.048,-1.165 0.285,-1.4019 0.6042,-0.6042 0.2889,0.7219 0.2534,1.5844 -0.079,1.9167 -0.3323,0.3323 -0.5687,-0.2584 -0.5253,-1.3125 z m 1,-19 c 0.048,-1.165 0.285,-1.4019 0.6042,-0.6042 0.2889,0.7219 0.2534,1.5844 -0.079,1.9167 -0.3323,0.3323 -0.5687,-0.2584 -0.5253,-1.3125 z m 1,-19 c 0.048,-1.165 0.285,-1.4019 0.6042,-0.6042 0.2889,0.7219 0.2534,1.5844 -0.079,1.9167 -0.3323,0.3323 -0.5687,-0.2584 -0.5253,-1.3125 z m 1,-19 c 0.048,-1.165 0.285,-1.4019 0.6042,-0.6042 0.2889,0.7219 0.2534,1.5844 -0.079,1.9167 -0.3323,0.3323 -0.5687,-0.2584 -0.5253,-1.3125 z m 1,-19 c 0.048,-1.165 0.285,-1.4019 0.6042,-0.6042 0.2889,0.7219 0.2534,1.5844 -0.079,1.9167 -0.3323,0.3323 -0.5687,-0.2584 -0.5253,-1.3125 z m 1,-19 c 0.048,-1.165 0.285,-1.4019 0.6042,-0.6042 0.2889,0.7219 0.2534,1.5844 -0.079,1.9167 -0.3323,0.3323 -0.5687,-0.2584 -0.5253,-1.3125 z m 1,-19 c 0.048,-1.165 0.285,-1.4019 0.6042,-0.6042 0.2889,0.7219 0.2534,1.5844 -0.079,1.9167 -0.3323,0.3323 -0.5687,-0.2584 -0.5253,-1.3125 z M 4492,2812.6224 c 0,-0.2076 0.7875,-0.9951 1.75,-1.75 1.5861,-1.2438 1.6214,-1.2085 0.3776,0.3776 -1.3064,1.6657 -2.1276,2.1955 -2.1276,1.3724 z M 2060.1579,2794 c 0,-1.375 0.227,-1.9375 0.5044,-1.25 0.2774,0.6875 0.2774,1.8125 0,2.5 -0.2774,0.6875 -0.5044,0.125 -0.5044,-1.25 z M 4514,2790.6224 c 0,-0.2076 0.7875,-0.9951 1.75,-1.75 1.5861,-1.2438 1.6214,-1.2085 0.3776,0.3776 -1.3064,1.6657 -2.1276,2.1955 -2.1276,1.3724 z m -1837,-7 c 0,-0.2076 0.7875,-0.9951 1.75,-1.75 1.5861,-1.2438 1.6214,-1.2085 0.3776,0.3776 -1.3064,1.6657 -2.1276,2.1955 -2.1276,1.3724 z m 1847,-4 c 0,-0.2076 0.7875,-0.9951 1.75,-1.75 1.5861,-1.2438 1.6214,-1.2085 0.3776,0.3776 -1.3064,1.6657 -2.1276,2.1955 -2.1276,1.3724 z m -2462.9211,-4.2057 c 0.048,-1.165 0.285,-1.4019 0.6042,-0.6042 0.2889,0.7219 0.2534,1.5844 -0.079,1.9167 -0.3323,0.3323 -0.5687,-0.2584 -0.5253,-1.3125 z m 271,-3 c 0.048,-1.165 0.285,-1.4019 0.6042,-0.6042 0.2889,0.7219 0.2534,1.5844 -0.079,1.9167 -0.3323,0.3323 -0.5687,-0.2584 -0.5253,-1.3125 z M 2701,2757.5 c 1.2917,-1.375 2.5736,-2.5 2.8486,-2.5 0.275,0 -0.5569,1.125 -1.8486,2.5 -1.2917,1.375 -2.5736,2.5 -2.8486,2.5 -0.275,0 0.5569,-1.125 1.8486,-2.5 z m -638.8421,-1.5 c 0,-1.375 0.227,-1.9375 0.5044,-1.25 0.2774,0.6875 0.2774,1.8125 0,2.5 -0.2774,0.6875 -0.5044,0.125 -0.5044,-1.25 z m 271,-3 c 0,-1.375 0.227,-1.9375 0.5044,-1.25 0.2774,0.6875 0.2774,1.8125 0,2.5 -0.2774,0.6875 -0.5044,0.125 -0.5044,-1.25 z m 385.8003,-14.25 c 4.144,-4.4152 5.0418,-5.2091 5.0418,-4.4582 0,0.1605 -2.1375,2.298 -4.75,4.75 l -4.75,4.4582 z m -655.8793,-2.3333 c 0.048,-1.165 0.285,-1.4019 0.6042,-0.6042 0.2889,0.7219 0.2534,1.5844 -0.079,1.9167 -0.3323,0.3323 -0.5687,-0.2584 -0.5253,-1.3125 z m 271.231,-15.9167 c 0.01,-3.3 0.1923,-4.5294 0.4148,-2.7321 0.2226,1.7974 0.218,4.4974 -0.01,6 -0.2281,1.5027 -0.4102,0.032 -0.4046,-3.2679 z m -270.231,-3.0833 c 0.048,-1.165 0.285,-1.4019 0.6042,-0.6042 0.2889,0.7219 0.2534,1.5844 -0.079,1.9167 -0.3323,0.3323 -0.5687,-0.2584 -0.5253,-1.3125 z m 1.231,-23.9167 c 0.01,-3.3 0.1923,-4.5294 0.4148,-2.7321 0.2226,1.7974 0.218,4.4974 -0.01,6 -0.2281,1.5027 -0.4102,0.032 -0.4046,-3.2679 z M 2762,2695.6871 c 0,-0.1721 1.4625,-1.6346 3.25,-3.25 l 3.25,-2.9371 -2.9371,3.25 c -2.7378,3.0295 -3.5629,3.7097 -3.5629,2.9371 z m 16,-15.0647 c 0,-0.2076 0.7875,-0.9951 1.75,-1.75 1.5861,-1.2438 1.6214,-1.2085 0.3776,0.3776 -1.3064,1.6657 -2.1276,2.1955 -2.1276,1.3724 z M 2065.286,2643.5 c 0.01,-2.75 0.2017,-3.7563 0.4316,-2.2363 0.2298,1.5201 0.2237,3.7701 -0.014,5 -0.2373,1.23 -0.4254,-0.014 -0.4179,-2.7637 z m 1753.983,-4.193 c 0.973,-0.2535 2.323,-0.2369 3,0.037 0.6771,0.2739 -0.119,0.4813 -1.769,0.461 -1.65,-0.02 -2.2039,-0.2445 -1.231,-0.4981 z m 21.5435,-0.9901 c 0.7219,-0.2889 1.5844,-0.2534 1.9167,0.079 0.3323,0.3323 -0.2584,0.5687 -1.3125,0.5253 -1.165,-0.048 -1.4019,-0.285 -0.6042,-0.6042 z m 14,-1 c 0.7219,-0.2889 1.5844,-0.2534 1.9167,0.079 0.3323,0.3323 -0.2584,0.5687 -1.3125,0.5253 -1.165,-0.048 -1.4019,-0.285 -0.6042,-0.6042 z M 2334.232,2613 c 0,-1.925 0.2058,-2.7125 0.4573,-1.75 0.2516,0.9625 0.2516,2.5375 0,3.5 -0.2515,0.9625 -0.4573,0.175 -0.4573,-1.75 z m -270.1531,-1.5833 c 0.048,-1.165 0.285,-1.4019 0.6042,-0.6042 0.2889,0.7219 0.2534,1.5844 -0.079,1.9167 -0.3323,0.3323 -0.5687,-0.2584 -0.5253,-1.3125 z M 2481,2595.6224 c 0,-0.2076 0.7875,-0.9951 1.75,-1.75 1.5861,-1.2438 1.6214,-1.2085 0.3776,0.3776 -1.3064,1.6657 -2.1276,2.1955 -2.1276,1.3724 z m -417.9211,-2.2057 c 0.048,-1.165 0.285,-1.4019 0.6042,-0.6042 0.2889,0.7219 0.2534,1.5844 -0.079,1.9167 -0.3323,0.3323 -0.5687,-0.2584 -0.5253,-1.3125 z m 270,-4 c 0.048,-1.165 0.285,-1.4019 0.6042,-0.6042 0.2889,0.7219 0.2534,1.5844 -0.079,1.9167 -0.3323,0.3323 -0.5687,-0.2584 -0.5253,-1.3125 z M 2491,2584.6224 c 0,-0.2076 0.7875,-0.9951 1.75,-1.75 1.5861,-1.2438 1.6214,-1.2085 0.3776,0.3776 -1.3064,1.6657 -2.1276,2.1955 -2.1276,1.3724 z m -428.9211,-5.2057 c 0.048,-1.165 0.285,-1.4019 0.6042,-0.6042 0.2889,0.7219 0.2534,1.5844 -0.079,1.9167 -0.3323,0.3323 -0.5687,-0.2584 -0.5253,-1.3125 z m 1001.8673,-2.1667 -3.4462,-3.75 3.75,3.4462 c 3.4904,3.2076 4.2098,4.0538 3.4462,4.0538 -0.1671,0 -1.8546,-1.6875 -3.75,-3.75 z M 2505,2569.5 c 1.2917,-1.375 2.5736,-2.5 2.8486,-2.5 0.275,0 -0.5569,1.125 -1.8486,2.5 -1.2917,1.375 -2.5736,2.5 -2.8486,2.5 -0.275,0 0.5569,-1.125 1.8486,-2.5 z m 19,-20 c 1.8658,-1.925 3.6173,-3.5 3.8923,-3.5 0.275,0 -1.0265,1.575 -2.8923,3.5 -1.8658,1.925 -3.6173,3.5 -3.8923,3.5 -0.275,0 1.0265,-1.575 2.8923,-3.5 z m -608,1.1224 c 0,-0.2076 0.7875,-0.9951 1.75,-1.75 1.5861,-1.2438 1.6214,-1.2085 0.3776,0.3776 -1.3064,1.6657 -2.1276,2.1955 -2.1276,1.3724 z M 1927.5,2538 c 0.9955,-1.1 2.035,-2 2.31,-2 0.275,0 -0.3145,0.9 -1.31,2 -0.9955,1.1 -2.035,2 -2.31,2 -0.275,0 0.3145,-0.9 1.31,-2 z m 625.5,-17.3129 c 0,-0.1721 1.4625,-1.6346 3.25,-3.25 l 3.25,-2.9371 -2.9371,3.25 c -2.7378,3.0295 -3.5629,3.7097 -3.5629,2.9371 z m -597,-11.0647 c 0,-0.2076 0.7875,-0.9951 1.75,-1.75 1.5861,-1.2438 1.6214,-1.2085 0.3776,0.3776 -1.3064,1.6657 -2.1276,2.1955 -2.1276,1.3724 z M 4189.5,2505 c 2.7086,-2.75 5.1498,-5 5.4248,-5 0.275,0 -1.7162,2.25 -4.4248,5 -2.7086,2.75 -5.1498,5 -5.4248,5 -0.275,0 1.7162,-2.25 4.4248,-5 z m -1614,-6 c 0.9955,-1.1 2.035,-2 2.31,-2 0.275,0 -0.3145,0.9 -1.31,2 -0.9955,1.1 -2.035,2 -2.31,2 -0.275,0 0.3145,-0.9 1.31,-2 z m 12.5,-11.3776 c 0,-0.2076 0.7875,-0.9951 1.75,-1.75 1.5861,-1.2438 1.6214,-1.2085 0.3776,0.3776 -1.3064,1.6657 -2.1276,2.1955 -2.1276,1.3724 z m 2111.0789,-137.2057 c 0.048,-1.165 0.285,-1.4019 0.6042,-0.6042 0.2889,0.7219 0.2534,1.5844 -0.079,1.9167 -0.3323,0.3323 -0.5687,-0.2584 -0.5253,-1.3125 z M 1738.5,2345 c 0.9955,-1.1 2.035,-2 2.31,-2 0.275,0 -0.3145,0.9 -1.31,2 -0.9955,1.1 -2.035,2 -2.31,2 -0.275,0 0.3145,-0.9 1.31,-2 z m 2961.5789,-7.5833 c 0.048,-1.165 0.285,-1.4019 0.6042,-0.6042 0.2889,0.7219 0.2534,1.5844 -0.079,1.9167 -0.3323,0.3323 -0.5687,-0.2584 -0.5253,-1.3125 z m 1,-17 c 0.048,-1.165 0.285,-1.4019 0.6042,-0.6042 0.2889,0.7219 0.2534,1.5844 -0.079,1.9167 -0.3323,0.3323 -0.5687,-0.2584 -0.5253,-1.3125 z m -421,-18 c 0.048,-1.165 0.285,-1.4019 0.6042,-0.6042 0.2889,0.7219 0.2534,1.5844 -0.079,1.9167 -0.3323,0.3323 -0.5687,-0.2584 -0.5253,-1.3125 z m 422.1733,-8.9167 c 0.011,-2.2 0.2159,-2.9823 0.4551,-1.7383 0.2392,1.2439 0.2301,3.0439 -0.02,4 -0.2503,0.956 -0.446,-0.062 -0.4349,-2.2617 z M 3009.25,2280.2837 c 1.5125,-0.2291 3.9875,-0.2291 5.5,0 1.5125,0.2292 0.275,0.4166 -2.75,0.4166 -3.025,0 -4.2625,-0.1874 -2.75,-0.4166 z m -789.7708,-11.5337 -8.9792,-9.25 9.25,8.9792 c 8.5912,8.3396 9.7052,9.5208 8.9792,9.5208 -0.149,0 -4.3115,-4.1625 -9.25,-9.25 z m 2060.7157,6.75 c 0.02,-1.65 0.2445,-2.2039 0.4981,-1.231 0.2535,0.973 0.2369,2.323 -0.037,3 -0.2739,0.6771 -0.4813,-0.119 -0.461,-1.769 z m -1.116,-18.0833 c 0.048,-1.165 0.285,-1.4019 0.6042,-0.6042 0.2889,0.7219 0.2534,1.5844 -0.079,1.9167 -0.3323,0.3323 -0.5687,-0.2584 -0.5253,-1.3125 z M 4702.232,2240 c 0,-1.925 0.2058,-2.7125 0.4573,-1.75 0.2516,0.9625 0.2516,2.5375 0,3.5 -0.2515,0.9625 -0.4573,0.175 -0.4573,-1.75 z m -2679.4703,-45.7073 c 1.2439,-0.2392 3.0439,-0.2301 4,0.02 0.956,0.2503 -0.062,0.446 -2.2617,0.4349 -2.2,-0.011 -2.9823,-0.2159 -1.7383,-0.4551 z m 26.9883,0.045 c 0.6875,-0.2774 1.8125,-0.2774 2.5,0 0.6875,0.2774 0.125,0.5044 -1.25,0.5044 -1.375,0 -1.9375,-0.227 -1.25,-0.5044 z m 2158.655,-101.5877 -1.905,-2.25 2.25,1.905 c 2.1144,1.7902 2.7052,2.595 1.905,2.595 -0.1898,0 -1.2023,-1.0125 -2.25,-2.25 z m -798.5925,-48.4331 c 0.7219,-0.2889 1.5844,-0.2534 1.9167,0.079 0.3323,0.3323 -0.2584,0.5687 -1.3125,0.5253 -1.165,-0.048 -1.4019,-0.285 -0.6042,-0.6042 z M 3184.25,2033.3107 c 0.9625,-0.2516 2.5375,-0.2516 3.5,0 0.9625,0.2515 0.175,0.4573 -1.75,0.4573 -1.925,0 -2.7125,-0.2058 -1.75,-0.4573 z m 22.5625,-0.9938 c 0.7219,-0.2889 1.5844,-0.2534 1.9167,0.079 0.3323,0.3323 -0.2584,0.5687 -1.3125,0.5253 -1.165,-0.048 -1.4019,-0.285 -0.6042,-0.6042 z m -69.4075,-7.5669 -1.905,-2.25 2.25,1.905 c 2.1144,1.7902 2.7052,2.595 1.905,2.595 -0.1898,0 -1.2023,-1.0125 -2.25,-2.25 z m 138.864,0.557 c 0.973,-0.2535 2.323,-0.2369 3,0.037 0.6771,0.2739 -0.119,0.4813 -1.769,0.461 -1.65,-0.02 -2.2039,-0.2445 -1.231,-0.4981 z m 15.481,0.031 c 0.6875,-0.2774 1.8125,-0.2774 2.5,0 0.6875,0.2774 0.125,0.5044 -1.25,0.5044 -1.375,0 -1.9375,-0.227 -1.25,-0.5044 z M 3080.4151,1959 c 0,-10.175 0.1485,-14.3375 0.33,-9.25 0.1815,5.0875 0.1815,13.4125 0,18.5 -0.1815,5.0875 -0.33,0.925 -0.33,-9.25 z m 376.7428,5 c 0,-1.375 0.227,-1.9375 0.5044,-1.25 0.2774,0.6875 0.2774,1.8125 0,2.5 -0.2774,0.6875 -0.5044,0.125 -0.5044,-1.25 z m 430.6546,-1.6831 c 0.7219,-0.2889 1.5844,-0.2534 1.9167,0.079 0.3323,0.3323 -0.2584,0.5687 -1.3125,0.5253 -1.165,-0.048 -1.4019,-0.285 -0.6042,-0.6042 z m -100.0625,-0.9792 c 0.6875,-0.2774 1.8125,-0.2774 2.5,0 0.6875,0.2774 0.125,0.5044 -1.25,0.5044 -1.375,0 -1.9375,-0.227 -1.25,-0.5044 z m 84,0 c 0.6875,-0.2774 1.8125,-0.2774 2.5,0 0.6875,0.2774 0.125,0.5044 -1.25,0.5044 -1.375,0 -1.9375,-0.227 -1.25,-0.5044 z m -56.4863,-1.0553 c 1.5201,-0.2298 3.7701,-0.2237 5,0.014 1.23,0.2373 -0.014,0.4254 -2.7637,0.4179 -2.75,-0.01 -3.7563,-0.2017 -2.2363,-0.4316 z m 27,0 c 1.5201,-0.2298 3.7701,-0.2237 5,0.014 1.23,0.2373 -0.014,0.4254 -2.7637,0.4179 -2.75,-0.01 -3.7563,-0.2017 -2.2363,-0.4316 z M 3458.2522,1937.5 c 0.011,-2.2 0.2159,-2.9823 0.4551,-1.7383 0.2392,1.2439 0.2301,3.0439 -0.02,4 -0.2503,0.956 -0.446,-0.062 -0.4349,-2.2617 z M 3079.4071,1786 c 0,-9.075 0.1516,-12.7875 0.3369,-8.25 0.1853,4.5375 0.1853,11.9625 0,16.5 -0.1853,4.5375 -0.3369,0.825 -0.3369,-8.25 z m 1446.4653,4.25 c -1.2438,-1.5861 -1.2085,-1.6214 0.3776,-0.3776 0.9625,0.7549 1.75,1.5424 1.75,1.75 0,0.8231 -0.8212,0.2933 -2.1276,-1.3724 z M 3458.1579,1753 c 0,-1.375 0.227,-1.9375 0.5044,-1.25 0.2774,0.6875 0.2774,1.8125 0,2.5 -0.2774,0.6875 -0.5044,0.125 -0.5044,-1.25 z m -378.963,-16.5 c 0.02,-1.65 0.2445,-2.2039 0.4981,-1.231 0.2535,0.973 0.2369,2.323 -0.037,3 -0.2739,0.6771 -0.4813,-0.119 -0.461,-1.769 z m 248.5551,-32.1623 c 0.6875,-0.2774 1.8125,-0.2774 2.5,0 0.6875,0.2774 0.125,0.5044 -1.25,0.5044 -1.375,0 -1.9375,-0.227 -1.25,-0.5044 z m 32.519,-0.031 c 0.973,-0.2535 2.323,-0.2369 3,0.037 0.6771,0.2739 -0.119,0.4813 -1.769,0.461 -1.65,-0.02 -2.2039,-0.2445 -1.231,-0.4981 z m 679.5435,-55.9901 c 0.7219,-0.2889 1.5844,-0.2534 1.9167,0.079 0.3323,0.3323 -0.2584,0.5687 -1.3125,0.5253 -1.165,-0.048 -1.4019,-0.285 -0.6042,-0.6042 z m -13,-1 c 0.7219,-0.2889 1.5844,-0.2534 1.9167,0.079 0.3323,0.3323 -0.2584,0.5687 -1.3125,0.5253 -1.165,-0.048 -1.4019,-0.285 -0.6042,-0.6042 z m -13,-1 c 0.7219,-0.2889 1.5844,-0.2534 1.9167,0.079 0.3323,0.3323 -0.2584,0.5687 -1.3125,0.5253 -1.165,-0.048 -1.4019,-0.285 -0.6042,-0.6042 z m -43,-3 c 0.7219,-0.2889 1.5844,-0.2534 1.9167,0.079 0.3323,0.3323 -0.2584,0.5687 -1.3125,0.5253 -1.165,-0.048 -1.4019,-0.285 -0.6042,-0.6042 z m -14,-1 c 0.7219,-0.2889 1.5844,-0.2534 1.9167,0.079 0.3323,0.3323 -0.2584,0.5687 -1.3125,0.5253 -1.165,-0.048 -1.4019,-0.285 -0.6042,-0.6042 z m -16,-1 c 0.7219,-0.2889 1.5844,-0.2534 1.9167,0.079 0.3323,0.3323 -0.2584,0.5687 -1.3125,0.5253 -1.165,-0.048 -1.4019,-0.285 -0.6042,-0.6042 z m -18,-1 c 0.7219,-0.2889 1.5844,-0.2534 1.9167,0.079 0.3323,0.3323 -0.2584,0.5687 -1.3125,0.5253 -1.165,-0.048 -1.4019,-0.285 -0.6042,-0.6042 z m -17,-1 c 0.7219,-0.2889 1.5844,-0.2534 1.9167,0.079 0.3323,0.3323 -0.2584,0.5687 -1.3125,0.5253 -1.165,-0.048 -1.4019,-0.285 -0.6042,-0.6042 z m -17,-1 c 0.7219,-0.2889 1.5844,-0.2534 1.9167,0.079 0.3323,0.3323 -0.2584,0.5687 -1.3125,0.5253 -1.165,-0.048 -1.4019,-0.285 -0.6042,-0.6042 z m -18,-1 c 0.7219,-0.2889 1.5844,-0.2534 1.9167,0.079 0.3323,0.3323 -0.2584,0.5687 -1.3125,0.5253 -1.165,-0.048 -1.4019,-0.285 -0.6042,-0.6042 z m -18,-1 c 0.7219,-0.2889 1.5844,-0.2534 1.9167,0.079 0.3323,0.3323 -0.2584,0.5687 -1.3125,0.5253 -1.165,-0.048 -1.4019,-0.285 -0.6042,-0.6042 z m -19.0625,-0.9792 c 0.6875,-0.2774 1.8125,-0.2774 2.5,0 0.6875,0.2774 0.125,0.5044 -1.25,0.5044 -1.375,0 -1.9375,-0.227 -1.25,-0.5044 z m -20,-1 c 0.6875,-0.2774 1.8125,-0.2774 2.5,0 0.6875,0.2774 0.125,0.5044 -1.25,0.5044 -1.375,0 -1.9375,-0.227 -1.25,-0.5044 z m -21,-1 c 0.6875,-0.2774 1.8125,-0.2774 2.5,0 0.6875,0.2774 0.125,0.5044 -1.25,0.5044 -1.375,0 -1.9375,-0.227 -1.25,-0.5044 z m -311,-13 c 0.6875,-0.2774 1.8125,-0.2774 2.5,0 0.6875,0.2774 0.125,0.5044 -1.25,0.5044 -1.375,0 -1.9375,-0.227 -1.25,-0.5044 z m -21,-1 c 0.6875,-0.2774 1.8125,-0.2774 2.5,0 0.6875,0.2774 0.125,0.5044 -1.25,0.5044 -1.375,0 -1.9375,-0.227 -1.25,-0.5044 z m -21,-1 c 0.6875,-0.2774 1.8125,-0.2774 2.5,0 0.6875,0.2774 0.125,0.5044 -1.25,0.5044 -1.375,0 -1.9375,-0.227 -1.25,-0.5044 z m -21,-1 c 0.6875,-0.2774 1.8125,-0.2774 2.5,0 0.6875,0.2774 0.125,0.5044 -1.25,0.5044 -1.375,0 -1.9375,-0.227 -1.25,-0.5044 z m -21,-1 c 0.6875,-0.2774 1.8125,-0.2774 2.5,0 0.6875,0.2774 0.125,0.5044 -1.25,0.5044 -1.375,0 -1.9375,-0.227 -1.25,-0.5044 z m -18.9375,-1.0208 c 0.7219,-0.2889 1.5844,-0.2534 1.9167,0.079 0.3323,0.3323 -0.2584,0.5687 -1.3125,0.5253 -1.165,-0.048 -1.4019,-0.285 -0.6042,-0.6042 z M 3213.25,1597.2715 c 2.0625,-0.2157 5.4375,-0.2157 7.5,0 2.0625,0.2158 0.375,0.3923 -3.75,0.3923 -4.125,0 -5.8125,-0.1765 -3.75,-0.3923 z" style="fill:#d9a674"/>
      <path id="path4" d="m 4428.7617,3641.2927 c 1.2439,-0.2392 3.0439,-0.2301 4,0.02 0.956,0.2503 -0.062,0.446 -2.2617,0.4349 -2.2,-0.011 -2.9823,-0.2159 -1.7383,-0.4551 z m 11.4883,-0.01 c 1.5125,-0.2291 3.9875,-0.2291 5.5,0 1.5125,0.2292 0.275,0.4166 -2.75,0.4166 -3.025,0 -4.2625,-0.1874 -2.75,-0.4166 z m -43.4375,-0.9668 c 0.7219,-0.2889 1.5844,-0.2534 1.9167,0.079 0.3323,0.3323 -0.2584,0.5687 -1.3125,0.5253 -1.165,-0.048 -1.4019,-0.285 -0.6042,-0.6042 z m 155.9152,-0.039 c 1.7752,-0.2209 4.9252,-0.2246 7,-0.01 2.0748,0.2165 0.6223,0.3972 -3.2277,0.4017 -3.85,0 -5.5475,-0.1727 -3.7723,-0.3936 z m 68.0223,-0.984 c 1.2375,-0.2384 3.2625,-0.2384 4.5,0 1.2375,0.2383 0.225,0.4333 -2.25,0.4333 -2.475,0 -3.4875,-0.195 -2.25,-0.4333 z m 77,-1.0177 c 1.7875,-0.2218 4.7125,-0.2218 6.5,0 1.7875,0.2218 0.325,0.4033 -3.25,0.4033 -3.575,0 -5.0375,-0.1815 -3.25,-0.4033 z m 86.25,-6.6542 c 0,-0.2076 0.7875,-0.9951 1.75,-1.75 1.5861,-1.2438 1.6214,-1.2085 0.3776,0.3776 -1.3064,1.6657 -2.1276,2.1955 -2.1276,1.3724 z m -519.1276,-37.371 c -1.2438,-1.5861 -1.2085,-1.6214 0.3776,-0.3776 1.6657,1.3064 2.1955,2.1276 1.3724,2.1276 -0.2076,0 -0.9951,-0.7875 -1.75,-1.75 z m -25,-25 c -1.2438,-1.5861 -1.2085,-1.6214 0.3776,-0.3776 0.9625,0.7549 1.75,1.5424 1.75,1.75 0,0.8231 -0.8212,0.2933 -2.1276,-1.3724 z M 1389.8125,3228.3169 c 0.7219,-0.2889 1.5844,-0.2534 1.9167,0.079 0.3323,0.3323 -0.2584,0.5687 -1.3125,0.5253 -1.165,-0.048 -1.4019,-0.285 -0.6042,-0.6042 z M 2352,3196.6224 c 0,-0.2076 0.7875,-0.9951 1.75,-1.75 1.5861,-1.2438 1.6214,-1.2085 0.3776,0.3776 -1.3064,1.6657 -2.1276,2.1955 -2.1276,1.3724 z m 18.9582,-17.8724 c 4.144,-4.4152 5.0418,-5.2091 5.0418,-4.4582 0,0.1605 -2.1375,2.298 -4.75,4.75 l -4.75,4.4582 z M 1555.5,3168 c 3.2656,-3.3 6.1624,-6 6.4374,-6 0.275,0 -2.1718,2.7 -5.4374,6 -3.2656,3.3 -6.1624,6 -6.4374,6 -0.275,0 2.1718,-2.7 5.4374,-6 z m -323.6276,-2.75 c -1.2438,-1.5861 -1.2085,-1.6214 0.3776,-0.3776 1.6657,1.3064 2.1955,2.1276 1.3724,2.1276 -0.2076,0 -0.9951,-0.7875 -1.75,-1.75 z M 2390.5,3158 c 0.9955,-1.1 2.035,-2 2.31,-2 0.275,0 -0.3145,0.9 -1.31,2 -0.9955,1.1 -2.035,2 -2.31,2 -0.275,0 0.3145,-0.9 1.31,-2 z m -824.5,-1.3776 c 0,-0.2076 0.7875,-0.9951 1.75,-1.75 1.5861,-1.2438 1.6214,-1.2085 0.3776,0.3776 -1.3064,1.6657 -2.1276,2.1955 -2.1276,1.3724 z m 832,-7 c 0,-0.2076 0.7875,-0.9951 1.75,-1.75 1.5861,-1.2438 1.6214,-1.2085 0.3776,0.3776 -1.3064,1.6657 -2.1276,2.1955 -2.1276,1.3724 z m 7,-8 c 0,-0.2076 0.7875,-0.9951 1.75,-1.75 1.5861,-1.2438 1.6214,-1.2085 0.3776,0.3776 -1.3064,1.6657 -2.1276,2.1955 -2.1276,1.3724 z m 655.0789,-68.2057 c 0.048,-1.165 0.285,-1.4019 0.6042,-0.6042 0.2889,0.7219 0.2534,1.5844 -0.079,1.9167 -0.3323,0.3323 -0.5687,-0.2584 -0.5253,-1.3125 z M 2050.1949,3060.5 c 0.02,-1.65 0.2445,-2.2039 0.4981,-1.231 0.2535,0.973 0.2369,2.323 -0.037,3 -0.2739,0.6771 -0.4813,-0.119 -0.461,-1.769 z M 1208.5,3031 c 0.9955,-1.1 2.035,-2 2.31,-2 0.275,0 -0.3145,0.9 -1.31,2 -0.9955,1.1 -2.035,2 -2.31,2 -0.275,0 0.3145,-0.9 1.31,-2 z m 841.732,-29 c 0,-1.925 0.2058,-2.7125 0.4573,-1.75 0.2516,0.9625 0.2516,2.5375 0,3.5 -0.2515,0.9625 -0.4573,0.175 -0.4573,-1.75 z m 0.8469,-33.5833 c 0.048,-1.165 0.285,-1.4019 0.6042,-0.6042 0.2889,0.7219 0.2534,1.5844 -0.079,1.9167 -0.3323,0.3323 -0.5687,-0.2584 -0.5253,-1.3125 z m 1,-19 c 0.048,-1.165 0.285,-1.4019 0.6042,-0.6042 0.2889,0.7219 0.2534,1.5844 -0.079,1.9167 -0.3323,0.3323 -0.5687,-0.2584 -0.5253,-1.3125 z m 1,-19 c 0.048,-1.165 0.285,-1.4019 0.6042,-0.6042 0.2889,0.7219 0.2534,1.5844 -0.079,1.9167 -0.3323,0.3323 -0.5687,-0.2584 -0.5253,-1.3125 z m 1,-19 c 0.048,-1.165 0.285,-1.4019 0.6042,-0.6042 0.2889,0.7219 0.2534,1.5844 -0.079,1.9167 -0.3323,0.3323 -0.5687,-0.2584 -0.5253,-1.3125 z m 1,-19 c 0.048,-1.165 0.285,-1.4019 0.6042,-0.6042 0.2889,0.7219 0.2534,1.5844 -0.079,1.9167 -0.3323,0.3323 -0.5687,-0.2584 -0.5253,-1.3125 z M 4392,2891.6224 c 0,-0.2076 0.7875,-0.9951 1.75,-1.75 1.5861,-1.2438 1.6214,-1.2085 0.3776,0.3776 -1.3064,1.6657 -2.1276,2.1955 -2.1276,1.3724 z m -2335.9211,-18.2057 c 0.048,-1.165 0.285,-1.4019 0.6042,-0.6042 0.2889,0.7219 0.2534,1.5844 -0.079,1.9167 -0.3323,0.3323 -0.5687,-0.2584 -0.5253,-1.3125 z m 1,-19 c 0.048,-1.165 0.285,-1.4019 0.6042,-0.6042 0.2889,0.7219 0.2534,1.5844 -0.079,1.9167 -0.3323,0.3323 -0.5687,-0.2584 -0.5253,-1.3125 z m 1,-19 c 0.048,-1.165 0.285,-1.4019 0.6042,-0.6042 0.2889,0.7219 0.2534,1.5844 -0.079,1.9167 -0.3323,0.3323 -0.5687,-0.2584 -0.5253,-1.3125 z M 4470,2832.6224 c 0,-0.2076 0.7875,-0.9951 1.75,-1.75 1.5861,-1.2438 1.6214,-1.2085 0.3776,0.3776 -1.3064,1.6657 -2.1276,2.1955 -2.1276,1.3724 z m 9,-7.9353 c 0,-0.1721 1.4625,-1.6346 3.25,-3.25 l 3.25,-2.9371 -2.9371,3.25 c -2.7378,3.0295 -3.5629,3.7097 -3.5629,2.9371 z m -2419.9211,-8.2704 c 0.048,-1.165 0.285,-1.4019 0.6042,-0.6042 0.2889,0.7219 0.2534,1.5844 -0.079,1.9167 -0.3323,0.3323 -0.5687,-0.2584 -0.5253,-1.3125 z M 2652,2811.6224 c 0,-0.2076 0.7875,-0.9951 1.75,-1.75 1.5861,-1.2438 1.6214,-1.2085 0.3776,0.3776 -1.3064,1.6657 -2.1276,2.1955 -2.1276,1.3724 z M 4504,2800.5 c 5.2033,-5.225 9.6855,-9.5 9.9605,-9.5 0.275,0 -3.7572,4.275 -8.9605,9.5 -5.2033,5.225 -9.6855,9.5 -9.9605,9.5 -0.275,0 3.7572,-4.275 8.9605,-9.5 z m -1846,4.1224 c 0,-0.2076 0.7875,-0.9951 1.75,-1.75 1.5861,-1.2438 1.6214,-1.2085 0.3776,0.3776 -1.3064,1.6657 -2.1276,2.1955 -2.1276,1.3724 z m -597.9211,-7.2057 c 0.048,-1.165 0.285,-1.4019 0.6042,-0.6042 0.2889,0.7219 0.2534,1.5844 -0.079,1.9167 -0.3323,0.3323 -0.5687,-0.2584 -0.5253,-1.3125 z M 2665,2796.6224 c 0,-0.2076 0.7875,-0.9951 1.75,-1.75 1.5861,-1.2438 1.6214,-1.2085 0.3776,0.3776 -1.3064,1.6657 -2.1276,2.1955 -2.1276,1.3724 z m 9,-10 c 0,-0.2076 0.7875,-0.9951 1.75,-1.75 1.5861,-1.2438 1.6214,-1.2085 0.3776,0.3776 -1.3064,1.6657 -2.1276,2.1955 -2.1276,1.3724 z m 1847,-4 c 0,-0.2076 0.7875,-0.9951 1.75,-1.75 1.5861,-1.2438 1.6214,-1.2085 0.3776,0.3776 -1.3064,1.6657 -2.1276,2.1955 -2.1276,1.3724 z m -2459.9211,-4.2057 c 0.048,-1.165 0.285,-1.4019 0.6042,-0.6042 0.2889,0.7219 0.2534,1.5844 -0.079,1.9167 -0.3323,0.3323 -0.5687,-0.2584 -0.5253,-1.3125 z M 2684,2775.6224 c 0,-0.2076 0.7875,-0.9951 1.75,-1.75 1.5861,-1.2438 1.6214,-1.2085 0.3776,0.3776 -1.3064,1.6657 -2.1276,2.1955 -2.1276,1.3724 z m 1845,-2 c 0,-0.2076 0.7875,-0.9951 1.75,-1.75 1.5861,-1.2438 1.6214,-1.2085 0.3776,0.3776 -1.3064,1.6657 -2.1276,2.1955 -2.1276,1.3724 z m -2196.9211,-4.2057 c 0.048,-1.165 0.285,-1.4019 0.6042,-0.6042 0.2889,0.7219 0.2534,1.5844 -0.079,1.9167 -0.3323,0.3323 -0.5687,-0.2584 -0.5253,-1.3125 z M 2696,2762.5 c 1.2917,-1.375 2.5736,-2.5 2.8486,-2.5 0.275,0 -0.5569,1.125 -1.8486,2.5 -1.2917,1.375 -2.5736,2.5 -2.8486,2.5 -0.275,0 0.5569,-1.125 1.8486,-2.5 z m -633.9211,-3.0833 c 0.048,-1.165 0.285,-1.4019 0.6042,-0.6042 0.2889,0.7219 0.2534,1.5844 -0.079,1.9167 -0.3323,0.3323 -0.5687,-0.2584 -0.5253,-1.3125 z m 271,-10 c 0.048,-1.165 0.285,-1.4019 0.6042,-0.6042 0.2889,0.7219 0.2534,1.5844 -0.079,1.9167 -0.3323,0.3323 -0.5687,-0.2584 -0.5253,-1.3125 z M 2712,2745.5 c 1.2917,-1.375 2.5736,-2.5 2.8486,-2.5 0.275,0 -0.5569,1.125 -1.8486,2.5 -1.2917,1.375 -2.5736,2.5 -2.8486,2.5 -0.275,0 0.5569,-1.125 1.8486,-2.5 z m -648.9211,-6.0833 c 0.048,-1.165 0.285,-1.4019 0.6042,-0.6042 0.2889,0.7219 0.2534,1.5844 -0.079,1.9167 -0.3323,0.3323 -0.5687,-0.2584 -0.5253,-1.3125 z m 1,-19 c 0.048,-1.165 0.285,-1.4019 0.6042,-0.6042 0.2889,0.7219 0.2534,1.5844 -0.079,1.9167 -0.3323,0.3323 -0.5687,-0.2584 -0.5253,-1.3125 z M 2334.3362,2708 c 0,-4.125 0.1765,-5.8125 0.3923,-3.75 0.2157,2.0625 0.2157,5.4375 0,7.5 -0.2158,2.0625 -0.3923,0.375 -0.3923,-3.75 z m -269.2573,-7.5833 c 0.048,-1.165 0.285,-1.4019 0.6042,-0.6042 0.2889,0.7219 0.2534,1.5844 -0.079,1.9167 -0.3323,0.3323 -0.5687,-0.2584 -0.5253,-1.3125 z M 2770,2687.5 c 1.2917,-1.375 2.5736,-2.5 2.8486,-2.5 0.275,0 -0.5569,1.125 -1.8486,2.5 -1.2917,1.375 -2.5736,2.5 -2.8486,2.5 -0.275,0 0.5569,-1.125 1.8486,-2.5 z m 12.5,-11.5 c 0.9955,-1.1 2.035,-2 2.31,-2 0.275,0 -0.3145,0.9 -1.31,2 -0.9955,1.1 -2.035,2 -2.31,2 -0.275,0 0.3145,-0.9 1.31,-2 z m 8.5,-7.3776 c 0,-0.2076 0.7875,-0.9951 1.75,-1.75 1.5861,-1.2438 1.6214,-1.2085 0.3776,0.3776 -1.3064,1.6657 -2.1276,2.1955 -2.1276,1.3724 z m 8,-7 c 0,-0.2076 0.7875,-0.9951 1.75,-1.75 1.5861,-1.2438 1.6214,-1.2085 0.3776,0.3776 -1.3064,1.6657 -2.1276,2.1955 -2.1276,1.3724 z m 1024.75,-22.2847 c 0.6875,-0.2774 1.8125,-0.2774 2.5,0 0.6875,0.2774 0.125,0.5044 -1.25,0.5044 -1.375,0 -1.9375,-0.227 -1.25,-0.5044 z M 2065.2522,2635.5 c 0.011,-2.2 0.2159,-2.9823 0.4551,-1.7383 0.2392,1.2439 0.2301,3.0439 -0.02,4 -0.2503,0.956 -0.446,-0.062 -0.4349,-2.2617 z M 2453,2627.6224 c 0,-0.2076 0.7875,-0.9951 1.75,-1.75 1.5861,-1.2438 1.6214,-1.2085 0.3776,0.3776 -1.3064,1.6657 -2.1276,2.1955 -2.1276,1.3724 z M 2334.1579,2618 c 0,-1.375 0.227,-1.9375 0.5044,-1.25 0.2774,0.6875 0.2774,1.8125 0,2.5 -0.2774,0.6875 -0.5044,0.125 -0.5044,-1.25 z M 2460,2619.6224 c 0,-0.2076 0.7875,-0.9951 1.75,-1.75 1.5861,-1.2438 1.6214,-1.2085 0.3776,0.3776 -1.3064,1.6657 -2.1276,2.1955 -2.1276,1.3724 z M 2064.1579,2608 c 0,-1.375 0.227,-1.9375 0.5044,-1.25 0.2774,0.6875 0.2774,1.8125 0,2.5 -0.2774,0.6875 -0.5044,0.125 -0.5044,-1.25 z m 268.921,-15.5833 c 0.048,-1.165 0.285,-1.4019 0.6042,-0.6042 0.2889,0.7219 0.2534,1.5844 -0.079,1.9167 -0.3323,0.3323 -0.5687,-0.2584 -0.5253,-1.3125 z M 2484,2592.6224 c 0,-0.2076 0.7875,-0.9951 1.75,-1.75 1.5861,-1.2438 1.6214,-1.2085 0.3776,0.3776 -1.3064,1.6657 -2.1276,2.1955 -2.1276,1.3724 z m -420.9211,-2.2057 c 0.048,-1.165 0.285,-1.4019 0.6042,-0.6042 0.2889,0.7219 0.2534,1.5844 -0.079,1.9167 -0.3323,0.3323 -0.5687,-0.2584 -0.5253,-1.3125 z m 1005.7935,-8.1667 c -1.2438,-1.5861 -1.2085,-1.6214 0.3776,-0.3776 1.6657,1.3064 2.1955,2.1276 1.3724,2.1276 -0.2076,0 -0.9951,-0.7875 -1.75,-1.75 z M 2495.5,2580 c 0.9955,-1.1 2.035,-2 2.31,-2 0.275,0 -0.3145,0.9 -1.31,2 -0.9955,1.1 -2.035,2 -2.31,2 -0.275,0 0.3145,-0.9 1.31,-2 z m 563.3724,-7.75 c -1.2438,-1.5861 -1.2085,-1.6214 0.3776,-0.3776 1.6657,1.3064 2.1955,2.1276 1.3724,2.1276 -0.2076,0 -0.9951,-0.7875 -1.75,-1.75 z M 2508,2566.6871 c 0,-0.1721 1.4625,-1.6346 3.25,-3.25 l 3.25,-2.9371 -2.9371,3.25 c -2.7378,3.0295 -3.5629,3.7097 -3.5629,2.9371 z m -601,-6.0647 c 0,-0.2076 0.7875,-0.9951 1.75,-1.75 1.5861,-1.2438 1.6214,-1.2085 0.3776,0.3776 -1.3064,1.6657 -2.1276,2.1955 -2.1276,1.3724 z M 2540,2533.5 c 6.8585,-6.875 12.695,-12.5 12.97,-12.5 0.275,0 -5.1115,5.625 -11.97,12.5 -6.8585,6.875 -12.695,12.5 -12.97,12.5 -0.275,0 5.1115,-5.625 11.97,-12.5 z m -617,9.1224 c 0,-0.2076 0.7875,-0.9951 1.75,-1.75 1.5861,-1.2438 1.6214,-1.2085 0.3776,0.3776 -1.3064,1.6657 -2.1276,2.1955 -2.1276,1.3724 z m 2240,-13 c 0,-0.2076 0.7875,-0.9951 1.75,-1.75 1.5861,-1.2438 1.6214,-1.2085 0.3776,0.3776 -1.3064,1.6657 -2.1276,2.1955 -2.1276,1.3724 z M 1946,2518.5 c 1.2917,-1.375 2.5736,-2.5 2.8486,-2.5 0.275,0 -0.5569,1.125 -1.8486,2.5 -1.2917,1.375 -2.5736,2.5 -2.8486,2.5 -0.275,0 0.5569,-1.125 1.8486,-2.5 z m 2235,-5 c 1.8658,-1.925 3.6173,-3.5 3.8923,-3.5 0.275,0 -1.0265,1.575 -2.8923,3.5 -1.8658,1.925 -3.6173,3.5 -3.8923,3.5 -0.275,0 1.0265,-1.575 2.8923,-3.5 z m -2222,-6.8776 c 0,-0.2076 0.7875,-0.9951 1.75,-1.75 1.5861,-1.2438 1.6214,-1.2085 0.3776,0.3776 -1.3064,1.6657 -2.1276,2.1955 -2.1276,1.3724 z m 612,-3.1224 c 1.2917,-1.375 2.5736,-2.5 2.8486,-2.5 0.275,0 -0.5569,1.125 -1.8486,2.5 -1.2917,1.375 -2.5736,2.5 -2.8486,2.5 -0.275,0 0.5569,-1.125 1.8486,-2.5 z m 1626,-6 c 1.2917,-1.375 2.5736,-2.5 2.8486,-2.5 0.275,0 -0.5569,1.125 -1.8486,2.5 -1.2917,1.375 -2.5736,2.5 -2.8486,2.5 -0.275,0 0.5569,-1.125 1.8486,-2.5 z M 2585.5,2490 c 0.9955,-1.1 2.035,-2 2.31,-2 0.275,0 -0.3145,0.9 -1.31,2 -0.9955,1.1 -2.035,2 -2.31,2 -0.275,0 0.3145,-0.9 1.31,-2 z m 1619.5,-1.3776 c 0,-0.2076 0.7875,-0.9951 1.75,-1.75 1.5861,-1.2438 1.6214,-1.2085 0.3776,0.3776 -1.3064,1.6657 -2.1276,2.1955 -2.1276,1.3724 z m -1610,-7 c 0,-0.2076 0.7875,-0.9951 1.75,-1.75 1.5861,-1.2438 1.6214,-1.2085 0.3776,0.3776 -1.3064,1.6657 -2.1276,2.1955 -2.1276,1.3724 z m 24,-21 c 0,-0.2076 0.7875,-0.9951 1.75,-1.75 1.5861,-1.2438 1.6214,-1.2085 0.3776,0.3776 -1.3064,1.6657 -2.1276,2.1955 -2.1276,1.3724 z m -905,-88 c 0,-0.2076 0.7875,-0.9951 1.75,-1.75 1.5861,-1.2438 1.6214,-1.2085 0.3776,0.3776 -1.3064,1.6657 -2.1276,2.1955 -2.1276,1.3724 z m 7,-8 c 0,-0.2076 0.7875,-0.9951 1.75,-1.75 1.5861,-1.2438 1.6214,-1.2085 0.3776,0.3776 -1.3064,1.6657 -2.1276,2.1955 -2.1276,1.3724 z m 7,-8 c 0,-0.2076 0.7875,-0.9951 1.75,-1.75 1.5861,-1.2438 1.6214,-1.2085 0.3776,0.3776 -1.3064,1.6657 -2.1276,2.1955 -2.1276,1.3724 z M 1742.5,2341 c 0.9955,-1.1 2.035,-2 2.31,-2 0.275,0 -0.3145,0.9 -1.31,2 -0.9955,1.1 -2.035,2 -2.31,2 -0.275,0 0.3145,-0.9 1.31,-2 z m 21.5,-21.5 c 1.8658,-1.925 3.6173,-3.5 3.8923,-3.5 0.275,0 -1.0265,1.575 -2.8923,3.5 -1.8658,1.925 -3.6173,3.5 -3.8923,3.5 -0.275,0 1.0265,-1.575 2.8923,-3.5 z m 2937.1579,-2.5 c 0,-1.375 0.227,-1.9375 0.5044,-1.25 0.2774,0.6875 0.2774,1.8125 0,2.5 -0.2774,0.6875 -0.5044,0.125 -0.5044,-1.25 z M 1774,2310.6224 c 0,-0.2076 0.7875,-0.9951 1.75,-1.75 1.5861,-1.2438 1.6214,-1.2085 0.3776,0.3776 -1.3064,1.6657 -2.1276,2.1955 -2.1276,1.3724 z m 2506.0789,-5.2057 c 0.048,-1.165 0.285,-1.4019 0.6042,-0.6042 0.2889,0.7219 0.2534,1.5844 -0.079,1.9167 -0.3323,0.3323 -0.5687,-0.2584 -0.5253,-1.3125 z M 1783,2302.6224 c 0,-0.2076 0.7875,-0.9951 1.75,-1.75 1.5861,-1.2438 1.6214,-1.2085 0.3776,0.3776 -1.3064,1.6657 -2.1276,2.1955 -2.1276,1.3724 z M 4702.232,2287 c 0,-1.925 0.2058,-2.7125 0.4573,-1.75 0.2516,0.9625 0.2516,2.5375 0,3.5 -0.2515,0.9625 -0.4573,0.175 -0.4573,-1.75 z m -422.1531,-15.5833 c 0.048,-1.165 0.285,-1.4019 0.6042,-0.6042 0.2889,0.7219 0.2534,1.5844 -0.079,1.9167 -0.3323,0.3323 -0.5687,-0.2584 -0.5253,-1.3125 z M 4702.2997,2248 c 0,-3.025 0.1874,-4.2625 0.4166,-2.75 0.2291,1.5125 0.2291,3.9875 0,5.5 -0.2292,1.5125 -0.4166,0.275 -0.4166,-2.75 z M 2029.25,2194.3107 c 0.9625,-0.2516 2.5375,-0.2516 3.5,0 0.9625,0.2515 0.175,0.4573 -1.75,0.4573 -1.925,0 -2.7125,-0.2058 -1.75,-0.4573 z m 14.5117,-0.018 c 1.2439,-0.2392 3.0439,-0.2301 4,0.02 0.956,0.2503 -0.062,0.446 -2.2617,0.4349 -2.2,-0.011 -2.9823,-0.2159 -1.7383,-0.4551 z M 4211.8724,2096.25 c -1.2438,-1.5861 -1.2085,-1.6214 0.3776,-0.3776 0.9625,0.7549 1.75,1.5424 1.75,1.75 0,0.8231 -0.8212,0.2933 -2.1276,-1.3724 z m -1022.0599,-62.9331 c 0.7219,-0.2889 1.5844,-0.2534 1.9167,0.079 0.3323,0.3323 -0.2584,0.5687 -1.3125,0.5253 -1.165,-0.048 -1.4019,-0.285 -0.6042,-0.6042 z m 91.4565,-8.0099 c 0.973,-0.2535 2.323,-0.2369 3,0.037 0.6771,0.2739 -0.119,0.4813 -1.769,0.461 -1.65,-0.02 -2.2039,-0.2445 -1.231,-0.4981 z m 6.481,0.031 c 0.6875,-0.2774 1.8125,-0.2774 2.5,0 0.6875,0.2774 0.125,0.5044 -1.25,0.5044 -1.375,0 -1.9375,-0.227 -1.25,-0.5044 z m 169.3289,-57.921 c 0.048,-1.165 0.285,-1.4019 0.6042,-0.6042 0.2889,0.7219 0.2534,1.5844 -0.079,1.9167 -0.3323,0.3323 -0.5687,-0.2584 -0.5253,-1.3125 z m 327.7336,-6.0998 c 0.7219,-0.2889 1.5844,-0.2534 1.9167,0.079 0.3323,0.3323 -0.2584,0.5687 -1.3125,0.5253 -1.165,-0.048 -1.4019,-0.285 -0.6042,-0.6042 z m 91,0 c 0.7219,-0.2889 1.5844,-0.2534 1.9167,0.079 0.3323,0.3323 -0.2584,0.5687 -1.3125,0.5253 -1.165,-0.048 -1.4019,-0.285 -0.6042,-0.6042 z m -66.0625,-0.9792 c 0.6875,-0.2774 1.8125,-0.2774 2.5,0 0.6875,0.2774 0.125,0.5044 -1.25,0.5044 -1.375,0 -1.9375,-0.227 -1.25,-0.5044 z m 40.519,-0.031 c 0.973,-0.2535 2.323,-0.2369 3,0.037 0.6771,0.2739 -0.119,0.4813 -1.769,0.461 -1.65,-0.02 -2.2039,-0.2445 -1.231,-0.4981 z M 3458.232,1944 c 0,-1.925 0.2058,-2.7125 0.4573,-1.75 0.2516,0.9625 0.2516,2.5375 0,3.5 -0.2515,0.9625 -0.4573,0.175 -0.4573,-1.75 z m -377.8346,-17 c 0,-7.975 0.1553,-11.2375 0.3451,-7.25 0.1898,3.9875 0.1898,10.5125 0,14.5 -0.1898,3.9875 -0.3451,0.725 -0.3451,-7.25 z m 1480.475,-100.75 c -1.2438,-1.5861 -1.2085,-1.6214 0.3776,-0.3776 1.6657,1.3064 2.1955,2.1276 1.3724,2.1276 -0.2076,0 -0.9951,-0.7875 -1.75,-1.75 z m -7.4674,-8.5 -1.905,-2.25 2.25,1.905 c 1.2375,1.0477 2.25,2.0602 2.25,2.25 0,0.8002 -0.8048,0.2094 -2.595,-1.905 z m -23.4807,-23.5 -2.4243,-2.75 2.75,2.4243 c 2.5703,2.2659 3.2086,3.0757 2.4243,3.0757 -0.1791,0 -1.4166,-1.2375 -2.75,-2.75 z M 3079.3201,1764 c 0,-3.575 0.1815,-5.0375 0.4033,-3.25 0.2218,1.7875 0.2218,4.7125 0,6.5 -0.2218,1.7875 -0.4033,0.325 -0.4033,-3.25 z m -0.1252,-22.5 c 0.02,-1.65 0.2445,-2.2039 0.4981,-1.231 0.2535,0.973 0.2369,2.323 -0.037,3 -0.2739,0.6771 -0.4813,-0.119 -0.461,-1.769 z m 245.6176,-37.1831 c 0.7219,-0.2889 1.5844,-0.2534 1.9167,0.079 0.3323,0.3323 -0.2584,0.5687 -1.3125,0.5253 -1.165,-0.048 -1.4019,-0.285 -0.6042,-0.6042 z m 613,-63 c 0.7219,-0.2889 1.5844,-0.2534 1.9167,0.079 0.3323,0.3323 -0.2584,0.5687 -1.3125,0.5253 -1.165,-0.048 -1.4019,-0.285 -0.6042,-0.6042 z m -70,-4 c 0.7219,-0.2889 1.5844,-0.2534 1.9167,0.079 0.3323,0.3323 -0.2584,0.5687 -1.3125,0.5253 -1.165,-0.048 -1.4019,-0.285 -0.6042,-0.6042 z m -18,-1 c 0.7219,-0.2889 1.5844,-0.2534 1.9167,0.079 0.3323,0.3323 -0.2584,0.5687 -1.3125,0.5253 -1.165,-0.048 -1.4019,-0.285 -0.6042,-0.6042 z M 3113.5,1631 c 2.1482,-2.2 4.1309,-4 4.4059,-4 0.275,0 -1.2577,1.8 -3.4059,4 -2.1482,2.2 -4.1309,4 -4.4059,4 -0.275,0 1.2577,-1.8 3.4059,-4 z m 697.3125,3.3169 c 0.7219,-0.2889 1.5844,-0.2534 1.9167,0.079 0.3323,0.3323 -0.2584,0.5687 -1.3125,0.5253 -1.165,-0.048 -1.4019,-0.285 -0.6042,-0.6042 z m -21,-1 c 0.7219,-0.2889 1.5844,-0.2534 1.9167,0.079 0.3323,0.3323 -0.2584,0.5687 -1.3125,0.5253 -1.165,-0.048 -1.4019,-0.285 -0.6042,-0.6042 z m -311,-13 c 0.7219,-0.2889 1.5844,-0.2534 1.9167,0.079 0.3323,0.3323 -0.2584,0.5687 -1.3125,0.5253 -1.165,-0.048 -1.4019,-0.285 -0.6042,-0.6042 z m -21,-1 c 0.7219,-0.2889 1.5844,-0.2534 1.9167,0.079 0.3323,0.3323 -0.2584,0.5687 -1.3125,0.5253 -1.165,-0.048 -1.4019,-0.285 -0.6042,-0.6042 z m -21,-1 c 0.7219,-0.2889 1.5844,-0.2534 1.9167,0.079 0.3323,0.3323 -0.2584,0.5687 -1.3125,0.5253 -1.165,-0.048 -1.4019,-0.285 -0.6042,-0.6042 z m -21,-1 c 0.7219,-0.2889 1.5844,-0.2534 1.9167,0.079 0.3323,0.3323 -0.2584,0.5687 -1.3125,0.5253 -1.165,-0.048 -1.4019,-0.285 -0.6042,-0.6042 z m -21,-1 c 0.7219,-0.2889 1.5844,-0.2534 1.9167,0.079 0.3323,0.3323 -0.2584,0.5687 -1.3125,0.5253 -1.165,-0.048 -1.4019,-0.285 -0.6042,-0.6042 z" style="fill:#cf8c4b"/>
      <path id="path3" d="m 3080.7658,3678.082 -3.2658,-2.9179 -0.5,-542.4364 -0.5,-542.4364 -5.9278,-6.7519 c -15.7095,-17.8933 -30.5754,-27.3121 -48.3559,-30.6376 -8.0359,-1.503 -32.0319,-0.5965 -42.2163,1.5947 -35.9749,7.7401 -85.2832,33.0689 -132,67.8061 -37.2795,27.72 -62.1342,49.6879 -107.0613,94.6266 -48.1002,48.1127 -80.8697,84.2533 -122.5635,135.172 -32.6149,39.8311 -78.8823,101.5214 -89.9234,119.8988 -2.8087,4.675 -12.5349,19.75 -21.6137,33.5 -9.0788,13.75 -21.2324,32.2 -27.008,41 -10.3748,15.8077 -38.086,51.812 -60.8035,79 -72.0285,86.2029 -123.0457,121.7515 -189.5266,132.0613 -34.2644,5.3137 -76.8955,-5.281 -106.5528,-26.4808 -22.7144,-16.2367 -40.063,-37.047 -52.6645,-63.1728 -10.1925,-21.1314 -12.996,-31.9953 -16.7497,-64.9077 -5.2598,-46.1181 -4.5674,-84.8636 4.5928,-257 4.1585,-78.1456 7.2718,-145.6271 7.5893,-164.5 1.5517,-92.2247 -7.7798,-171.7329 -23.9387,-203.969 -5.9943,-11.9583 -7.3084,-13.531 -11.3064,-13.531 -8.8407,0 -27.6443,8.5528 -43.0864,19.5979 -26.4815,18.941 -62.7258,55.1828 -93.4755,93.469 -31.8316,39.6334 -59.3506,79.7444 -99.0911,144.4331 -48.6154,79.1351 -61.5202,102.6508 -127.59,232.5 -50.0435,98.3524 -59.9709,118.8573 -63.2387,130.6198 -9.5873,34.5096 -25.5823,61.2763 -51.6252,86.3922 -21.7792,21.0039 -48.1825,36.7705 -79.596,47.5305 -27.6324,9.4648 -51.4026,12.0641 -87.1472,9.5296 -76.8667,-5.4504 -134.7298,-32.8865 -165.234,-78.3468 -10.1305,-15.0973 -18.6131,-36.0171 -23.0013,-56.7253 -2.6904,-12.6964 -2.4431,-35.3949 0.473,-43.4193 5.9134,-16.2718 19.1837,-27.9781 39.1424,-34.5294 9.2312,-3.03 33.0856,-7.6276 49.5,-9.5404 20.9681,-2.4435 45.0689,-5.4681 53.3756,-6.6987 l 7.3756,-1.0927 14.9717,-30.6097 c 8.2345,-16.8354 26.1306,-54.0328 39.7692,-82.6608 28.6687,-60.1769 36.3413,-75.6442 57.679,-116.2775 50.0328,-95.2768 86.5835,-159.4894 121.6249,-213.6715 72.5799,-112.2252 141.9482,-199.1741 198.0643,-248.2613 69.7944,-61.0522 135.6663,-95.5196 205.7357,-107.651 25.6855,-4.4471 62.9225,-5.1204 90.1693,-1.6306 30.1383,3.8603 53.2665,10.6558 78.2347,22.9871 24.4827,12.0915 40.8713,24.3794 66.0528,49.5256 8.8291,8.8166 19.9969,20.9802 24.8175,27.0302 57.454,72.1071 83.432,162.2938 89.7266,311.5 1.2961,30.7215 0.6009,118.1306 -1.2075,151.8161 -0.5998,11.1738 -0.8537,20.5529 -0.5643,20.8423 0.2895,0.2895 4.9413,-5.4778 10.3375,-12.816 39.8034,-54.129 84.7366,-110.3097 124.2425,-155.3424 45.9319,-52.3578 105.5416,-111.7647 151.5949,-151.0793 65.815,-56.1847 133.5134,-101.1065 196.4367,-130.3469 56.2588,-26.1434 103.2464,-40.893 150.0633,-47.1054 32.1997,-4.2728 75.5209,-3.599 102.678,1.597 4.1239,0.789 7.9084,1.4346 8.41,1.4346 0.5016,0 0.912,-2.4457 0.912,-5.4349 0,-7.1388 1.2464,-10.1351 5.2251,-12.5609 3.2448,-1.9784 5.1499,-1.9968 207.057,-2.0005 225.5508,0 209.3614,-0.4944 212.2539,6.4282 2.182,5.2222 2.2245,1395.8123 0.043,1401.0338 -2.959,7.0818 14.8479,6.5343 -212.5134,6.5343 h -205.034 z M 4412.5,3640.8603 c -50.2045,-1.4597 -84.438,-8.7832 -114.3034,-24.4525 -18.7412,-9.8328 -32.8263,-20.8275 -50.4912,-39.4129 -20.043,-21.0873 -35.2093,-42.7962 -66.0162,-94.4949 -25.1401,-42.189 -27.5119,-45.8633 -65.1129,-100.8705 -74.981,-109.6912 -117.1381,-167.966 -162.4951,-224.621 -34.451,-43.0324 -47.7378,-57.6392 -64.5812,-70.997 -24.4539,-19.3934 -57.8436,-35.8083 -96.5,-47.4411 l -17.5,-5.2663 -0.2525,-196.5096 -0.2525,-196.5097 32.7525,-0.5865 c 33.736,-0.6042 43.8259,-1.2246 77.2525,-4.7506 28.5331,-3.0098 66.7041,-8.9779 87,-13.6027 19.9364,-4.5428 50.2795,-14.0921 71.0184,-22.3502 125.0341,-49.7875 207.0188,-136.3931 230.9765,-243.9948 5.155,-23.1528 6.3827,-36.0504 6.3776,-67 0,-22.555 -0.4195,-32.5605 -1.7659,-42.5 -4.792,-35.3762 -13.287,-63.7459 -27.5481,-92 -13.9138,-27.5658 -30.526,-49.9983 -53.6894,-72.5 -17.4838,-16.9843 -26.4376,-24.1766 -48.3691,-38.8532 -80.9716,-54.1864 -206.1737,-84.8232 -334,-81.7294 -14.575,0.3527 -29.5375,0.9178 -33.25,1.2556 l -6.75,0.6142 V 1797.6436 1633 h 2.75 c 7.3331,0.01 92.4405,4.5371 151.25,8.0461 128.1637,7.6473 267.5068,20.4081 322.5,29.5341 70.5119,11.7012 128.185,29.6691 182.1394,56.7448 120.8235,60.6325 204.341,175.309 243.3687,334.1654 23.1467,94.2151 30.376,186.2752 22.4596,286.006 -9.7406,122.7124 -43.0577,235.7837 -94.7319,321.5 -32.905,54.5823 -67.1152,98.6399 -106.3787,137 -26.1742,25.5719 -29.0738,27.9507 -68.8571,56.4895 -22.4446,16.1007 -30.8469,22.8811 -43.3267,34.9627 -18.2806,17.6974 -27.2256,31.4407 -30.7603,47.2609 -3.1999,14.3223 -0.1029,28.2085 11.666,52.307 6.7332,13.7871 13.181,24.0445 30.7887,48.9799 36.5348,51.7393 69.7633,95.03 154.6646,201.5 40.8381,51.2128 72.9779,92.6059 93.62,120.574 8.9912,12.1822 27.3888,37.0617 40.8834,55.2877 57.3568,77.4669 73.3024,102.7817 94.2562,149.6383 14.4324,32.2734 15.2091,46.0026 3.2607,57.6363 -4.8688,4.7405 -5.806,5.2175 -12.1639,6.1909 -3.8353,0.5873 -32.154,1.3047 -63.8887,1.6186 -31.35,0.3101 -89.625,1.0231 -129.5,1.5844 -98.0001,1.3795 -140.3447,1.5906 -166.5,0.8301 z M 3060.0789,3081.4167 c 0.048,-1.165 0.285,-1.4019 0.6042,-0.6042 0.2889,0.7219 0.2534,1.5844 -0.079,1.9167 -0.3323,0.3323 -0.5687,-0.2584 -0.5253,-1.3125 z m 0,-5 c 0.048,-1.165 0.285,-1.4019 0.6042,-0.6042 0.2889,0.7219 0.2534,1.5844 -0.079,1.9167 -0.3323,0.3323 -0.5687,-0.2584 -0.5253,-1.3125 z m -32.2065,-72.1667 c -1.2438,-1.5861 -1.2085,-1.6214 0.3776,-0.3776 1.6657,1.3064 2.1955,2.1276 1.3724,2.1276 -0.2076,0 -0.9951,-0.7875 -1.75,-1.75 z M 2590.5,2934 c 2.1482,-2.2 4.1309,-4 4.4059,-4 0.275,0 -1.2577,1.8 -3.4059,4 -2.1482,2.2 -4.1309,4 -4.4059,4 -0.275,0 1.2577,-1.8 3.4059,-4 z m 489.9026,-994.75 c -0.4964,-99.4125 -0.7833,-187.725 -0.6374,-196.25 0.9725,-56.8337 11.4713,-89.7189 36.1799,-113.3254 15.6052,-14.9091 34.9803,-23.3872 67.0549,-29.3417 7.6501,-1.4202 15.0498,-1.7648 38,-1.7695 31.5725,-0.01 33.6416,0.1891 89.5,8.4578 18.15,2.6867 41.325,5.7965 51.5,6.9106 14.5949,1.5981 73.9259,4.8276 134.5,7.3212 l 6,0.247 0.252,249.25 0.252,249.25 h -210.8494 -210.8494 z m 342.6968,103.4033 c 8.2357,-2.6268 14.3056,-6.3309 19.6707,-12.0037 9.1414,-9.6657 11.4401,-17.534 13.9207,-47.6496 1.5504,-18.8227 1.7733,-35.0732 1.7901,-130.5 l 0.019,-109 -2.2099,-7.0231 c -3.5079,-11.1483 -11.2097,-18.5417 -23.0168,-22.0952 -5.2891,-1.5918 -27.2014,-5.3596 -46.7733,-8.0428 -10.0032,-1.3713 -19.6851,-1.7808 -42,-1.7764 -25.7702,0.01 -30.4274,0.26 -41.8159,2.2882 -32.7636,5.8351 -56.7276,14.6861 -78.107,28.8487 -14.2953,9.4697 -33.0557,28.3116 -42.6155,42.8006 -17.1877,26.0498 -26.2966,51.7351 -36.9983,104.3283 -19.5171,95.9162 -21.3896,125.2928 -8.948,140.3766 1.756,2.1288 5.9015,5.1065 9.7453,7 6.4336,3.1691 7.2213,3.3084 20.596,3.644 23.12,0.58 53.2813,-1.538 90.1434,-6.3302 15.1716,-1.9723 42.6173,-2.0355 57.0341,-0.1312 6.0687,0.8016 23.036,4.444 37.7049,8.0942 14.669,3.6501 29.9536,7.2664 33.9659,8.0362 9.1101,1.7478 31.2909,1.2417 37.8945,-0.8646 z" style="fill:#cb833d"/>
      <path id="path2" d="m 2947,3177.955 c -8.2878,-0.9972 -308.9676,-75.0412 -319,-78.5554 -4.125,-1.4449 -9.525,-3.7861 -12,-5.2027 -28.006,-16.029 -44.4534,-37.4653 -51.7329,-67.4243 -2.6265,-10.8094 -2.3078,-35.411 0.5982,-46.181 4.9076,-18.1878 11.9895,-30.9659 24.5319,-44.2632 22.0943,-23.4241 53.4275,-35.1062 84.1028,-31.3564 8.8373,1.0803 307.73,74.1426 318.5,77.8552 25.3045,8.7228 45.8879,26.7764 57.7734,50.6728 7.3215,14.7202 10.3047,27.587 10.3174,44.5 0.018,23.8001 -7.0427,44.3754 -21.5031,62.6626 -21.7777,27.5411 -56.1877,41.552 -91.5877,37.2924 z" style="fill:#b12121"/>
    </g>
  </g>
  <metadata id="metadata7">
    
      
        Logo
      
    
  </metadata>
</svg>